<svg width="364" height="300" viewBox="0 0 364 300" fill="none" xmlns="http://www.w3.org/2000/svg">
<path d="M141.267 293.629C141.267 297.15 116.279 300 85.4558 300C54.6327 300 29.645 297.13 29.645 293.629C29.645 290.128 54.6327 287.258 85.4558 287.258C116.279 287.258 141.267 290.128 141.267 293.629Z" fill="#263238" fill-opacity="0.1"/>
<path d="M225.232 229.41C226.083 230.404 226.86 231.459 227.557 232.567" stroke="#263238" stroke-width="0.5" stroke-linecap="round" stroke-linejoin="round"/>
<path d="M221.979 232.184C222.679 233.031 223.318 233.926 223.892 234.862" stroke="#263238" stroke-width="0.5" stroke-linecap="round" stroke-linejoin="round"/>
<path d="M226.457 230.949L223.013 233.484" stroke="#263238" stroke-width="0.5" stroke-linecap="round" stroke-linejoin="round"/>
<path d="M227.834 233.008C228.512 234.128 229.11 235.295 229.623 236.5" stroke="#263238" stroke-width="0.5" stroke-linecap="round" stroke-linejoin="round"/>
<path d="M224.18 235.227C224.748 236.178 225.253 237.165 225.691 238.183" stroke="#263238" stroke-width="0.5" stroke-linecap="round" stroke-linejoin="round"/>
<path d="M228.791 234.719L224.984 236.68" stroke="#263238" stroke-width="0.5" stroke-linecap="round" stroke-linejoin="round"/>
<path d="M229.824 236.977C230.316 238.193 230.719 239.443 231.03 240.717" stroke="#263238" stroke-width="0.5" stroke-linecap="round" stroke-linejoin="round"/>
<path d="M225.854 238.582C226.273 239.608 226.615 240.663 226.878 241.739" stroke="#263238" stroke-width="0.5" stroke-linecap="round" stroke-linejoin="round"/>
<path d="M230.494 238.824L226.418 240.144" stroke="#263238" stroke-width="0.5" stroke-linecap="round" stroke-linejoin="round"/>
<path d="M231.145 241.215C231.433 242.497 231.631 243.798 231.738 245.108" stroke="#263238" stroke-width="0.5" stroke-linecap="round" stroke-linejoin="round"/>
<path d="M226.973 242.164C227.216 243.245 227.383 244.341 227.471 245.445" stroke="#263238" stroke-width="0.5" stroke-linecap="round" stroke-linejoin="round"/>
<path d="M231.508 243.145L227.28 243.785" stroke="#263238" stroke-width="0.5" stroke-linecap="round" stroke-linejoin="round"/>
<path d="M231.767 245.617C231.814 246.268 231.824 246.928 231.814 247.53L231.719 249.492" stroke="#263238" stroke-width="0.5" stroke-linecap="round" stroke-linejoin="round"/>
<path d="M227.499 245.875C227.499 246.43 227.547 246.985 227.499 247.54L227.413 249.204" stroke="#263238" stroke-width="0.5" stroke-linecap="round" stroke-linejoin="round"/>
<path d="M231.814 247.577L227.538 247.539" stroke="#263238" stroke-width="0.5" stroke-linecap="round" stroke-linejoin="round"/>
<path d="M231.69 250.055C231.603 250.705 231.498 251.346 231.403 251.968C231.345 252.293 231.307 252.619 231.24 252.925L230.991 253.881" stroke="#263238" stroke-width="0.5" stroke-linecap="round" stroke-linejoin="round"/>
<path d="M227.433 249.633L227.184 251.278C227.136 251.546 227.107 251.824 227.05 252.091L226.839 252.895" stroke="#263238" stroke-width="0.5" stroke-linecap="round" stroke-linejoin="round"/>
<path d="M231.402 251.999L227.184 251.281" stroke="#263238" stroke-width="0.5" stroke-linecap="round" stroke-linejoin="round"/>
<path d="M230.867 254.418C230.724 255.068 230.536 255.707 230.303 256.331C230.073 256.944 229.853 257.565 229.614 258.178" stroke="#263238" stroke-width="0.5" stroke-linecap="round" stroke-linejoin="round"/>
<path d="M226.734 253.316C226.613 253.856 226.453 254.387 226.256 254.904C226.055 255.421 225.883 255.947 225.672 256.464" stroke="#263238" stroke-width="0.5" stroke-linecap="round" stroke-linejoin="round"/>
<path d="M230.302 256.299L226.256 254.902" stroke="#263238" stroke-width="0.5" stroke-linecap="round" stroke-linejoin="round"/>
<path d="M229.394 258.605L228.533 260.375C228.208 260.949 227.863 261.504 227.519 262.059" stroke="#263238" stroke-width="0.5" stroke-linecap="round" stroke-linejoin="round"/>
<path d="M225.491 256.848L224.764 258.35L223.912 259.775" stroke="#263238" stroke-width="0.5" stroke-linecap="round" stroke-linejoin="round"/>
<path d="M228.532 260.376L224.763 258.348" stroke="#263238" stroke-width="0.5" stroke-linecap="round" stroke-linejoin="round"/>
<path d="M227.27 262.5C226.925 263.055 226.505 263.562 226.122 264.088L225.529 264.872L224.869 265.609" stroke="#263238" stroke-width="0.5" stroke-linecap="round" stroke-linejoin="round"/>
<path d="M223.682 260.148C223.395 260.617 223.032 261.038 222.726 261.488L222.228 262.157L221.673 262.77" stroke="#263238" stroke-width="0.5" stroke-linecap="round" stroke-linejoin="round"/>
<path d="M226.103 264.086L222.707 261.484" stroke="#263238" stroke-width="0.5" stroke-linecap="round" stroke-linejoin="round"/>
<path d="M224.505 265.984C224.078 266.483 223.618 266.953 223.128 267.391C222.64 267.821 222.171 268.28 221.664 268.692" stroke="#263238" stroke-width="0.5" stroke-linecap="round" stroke-linejoin="round"/>
<path d="M221.358 263.082C221.004 263.52 220.614 263.926 220.191 264.297C219.779 264.66 219.377 265.053 218.957 265.407" stroke="#263238" stroke-width="0.5" stroke-linecap="round" stroke-linejoin="round"/>
<path d="M223.128 267.388L220.191 264.27" stroke="#263238" stroke-width="0.5" stroke-linecap="round" stroke-linejoin="round"/>
<path d="M221.253 269.008L219.675 270.184L218 271.208" stroke="#263238" stroke-width="0.5" stroke-linecap="round" stroke-linejoin="round"/>
<path d="M218.613 265.637L217.283 266.632L215.857 267.493" stroke="#263238" stroke-width="0.5" stroke-linecap="round" stroke-linejoin="round"/>
<path d="M219.674 270.182L217.283 266.633" stroke="#263238" stroke-width="0.5" stroke-linecap="round" stroke-linejoin="round"/>
<path d="M217.56 271.461C216.986 271.786 216.384 272.045 215.8 272.341L214.91 272.762L213.954 273.097" stroke="#263238" stroke-width="0.5" stroke-linecap="round" stroke-linejoin="round"/>
<path d="M215.485 267.723C215.006 267.991 214.528 268.211 214.002 268.459C213.753 268.574 213.504 268.708 213.246 268.813L212.471 269.1" stroke="#263238" stroke-width="0.5" stroke-linecap="round" stroke-linejoin="round"/>
<path d="M215.799 272.345L214.001 268.461" stroke="#263238" stroke-width="0.5" stroke-linecap="round" stroke-linejoin="round"/>
<path d="M213.504 273.281C212.269 273.72 211.006 274.077 209.725 274.353" stroke="#263238" stroke-width="0.5" stroke-linecap="round" stroke-linejoin="round"/>
<path d="M212.059 269.246C211.02 269.636 209.956 269.956 208.874 270.203" stroke="#263238" stroke-width="0.5" stroke-linecap="round" stroke-linejoin="round"/>
<path d="M211.629 273.873L210.481 269.75" stroke="#263238" stroke-width="0.5" stroke-linecap="round" stroke-linejoin="round"/>
<path d="M209.218 274.438L207.305 274.734C206.664 274.811 206.004 274.811 205.392 274.858" stroke="#263238" stroke-width="0.5" stroke-linecap="round" stroke-linejoin="round"/>
<path d="M208.443 270.23L206.807 270.479C206.252 270.546 205.697 270.546 205.143 270.584" stroke="#263238" stroke-width="0.5" stroke-linecap="round" stroke-linejoin="round"/>
<path d="M207.266 274.734L206.807 270.477" stroke="#263238" stroke-width="0.5" stroke-linecap="round" stroke-linejoin="round"/>
<path d="M204.798 274.879C203.488 274.891 202.179 274.828 200.876 274.688" stroke="#263238" stroke-width="0.5" stroke-linecap="round" stroke-linejoin="round"/>
<path d="M204.713 270.601C204.158 270.639 203.602 270.639 203.048 270.601C202.494 270.598 201.941 270.556 201.393 270.477" stroke="#263238" stroke-width="0.5" stroke-linecap="round" stroke-linejoin="round"/>
<path d="M202.837 274.839L203.047 270.562" stroke="#263238" stroke-width="0.5" stroke-linecap="round" stroke-linejoin="round"/>
<path d="M200.369 274.61C199.728 274.505 199.068 274.428 198.456 274.285L196.542 273.797" stroke="#263238" stroke-width="0.5" stroke-linecap="round" stroke-linejoin="round"/>
<path d="M200.962 270.375C200.417 270.279 199.862 270.231 199.326 270.107L197.719 269.695" stroke="#263238" stroke-width="0.5" stroke-linecap="round" stroke-linejoin="round"/>
<path d="M198.427 274.286L199.326 270.105" stroke="#263238" stroke-width="0.5" stroke-linecap="round" stroke-linejoin="round"/>
<path d="M196.026 273.675C194.781 273.265 193.563 272.776 192.381 272.211" stroke="#263238" stroke-width="0.5" stroke-linecap="round" stroke-linejoin="round"/>
<path d="M197.299 269.587C196.246 269.241 195.217 268.825 194.218 268.344" stroke="#263238" stroke-width="0.5" stroke-linecap="round" stroke-linejoin="round"/>
<path d="M194.18 272.995L195.739 269.016" stroke="#263238" stroke-width="0.5" stroke-linecap="round" stroke-linejoin="round"/>
<path d="M191.873 271.951L190.993 271.52L190.151 271.013C189.597 270.659 189.013 270.353 188.487 269.961" stroke="#263238" stroke-width="0.5" stroke-linecap="round" stroke-linejoin="round"/>
<path d="M193.787 268.125L193.041 267.762L192.333 267.331C191.864 267.035 191.376 266.776 190.927 266.441" stroke="#263238" stroke-width="0.5" stroke-linecap="round" stroke-linejoin="round"/>
<path d="M190.19 271.05L192.371 267.367" stroke="#263238" stroke-width="0.5" stroke-linecap="round" stroke-linejoin="round"/>
<path d="M188.114 269.694C187.597 269.301 187.062 268.919 186.555 268.507L185.101 267.168" stroke="#263238" stroke-width="0.5" stroke-linecap="round" stroke-linejoin="round"/>
<path d="M190.62 266.212C190.18 265.877 189.721 265.561 189.291 265.207L188.047 264.098" stroke="#263238" stroke-width="0.5" stroke-linecap="round" stroke-linejoin="round"/>
<path d="M186.555 268.51L189.291 265.219" stroke="#263238" stroke-width="0.5" stroke-linecap="round" stroke-linejoin="round"/>
<path d="M184.718 266.832C183.801 265.896 182.948 264.898 182.164 263.848" stroke="#263238" stroke-width="0.5" stroke-linecap="round" stroke-linejoin="round"/>
<path d="M187.741 263.811C186.973 263.014 186.254 262.17 185.589 261.285" stroke="#263238" stroke-width="0.5" stroke-linecap="round" stroke-linejoin="round"/>
<path d="M183.398 265.391L186.622 262.578" stroke="#263238" stroke-width="0.5" stroke-linecap="round" stroke-linejoin="round"/>
<path d="M181.858 263.448C181.666 263.18 181.456 262.922 181.274 262.654L180.767 261.812C180.442 261.238 180.059 260.702 179.811 260.109" stroke="#263238" stroke-width="0.5" stroke-linecap="round" stroke-linejoin="round"/>
<path d="M185.321 260.939C185.158 260.71 184.986 260.499 184.833 260.27L184.403 259.552C184.135 259.074 183.8 258.596 183.57 258.117" stroke="#263238" stroke-width="0.5" stroke-linecap="round" stroke-linejoin="round"/>
<path d="M180.767 261.812L184.402 259.555" stroke="#263238" stroke-width="0.5" stroke-linecap="round" stroke-linejoin="round"/>
<path d="M179.552 259.649C179.275 259.056 178.968 258.472 178.72 257.87L178.041 256.023" stroke="#263238" stroke-width="0.5" stroke-linecap="round" stroke-linejoin="round"/>
<path d="M183.379 257.725C183.15 257.228 182.882 256.769 182.671 256.223L182.107 254.664" stroke="#263238" stroke-width="0.5" stroke-linecap="round" stroke-linejoin="round"/>
<path d="M178.72 257.868L182.671 256.223" stroke="#263238" stroke-width="0.5" stroke-linecap="round" stroke-linejoin="round"/>
<path d="M177.869 255.538C177.493 254.283 177.202 253.005 176.998 251.711" stroke="#263238" stroke-width="0.5" stroke-linecap="round" stroke-linejoin="round"/>
<path d="M181.954 254.261C181.641 253.2 181.398 252.12 181.227 251.027" stroke="#263238" stroke-width="0.5" stroke-linecap="round" stroke-linejoin="round"/>
<path d="M177.372 253.632L181.543 252.656" stroke="#263238" stroke-width="0.5" stroke-linecap="round" stroke-linejoin="round"/>
<path d="M176.921 251.191L176.778 250.234C176.778 249.909 176.778 249.574 176.711 249.278L176.625 247.316" stroke="#263238" stroke-width="0.5" stroke-linecap="round" stroke-linejoin="round"/>
<path d="M181.159 250.599L181.035 249.776C181.021 249.499 181.021 249.221 181.035 248.944L180.949 247.289" stroke="#263238" stroke-width="0.5" stroke-linecap="round" stroke-linejoin="round"/>
<path d="M176.711 249.242L180.988 248.945" stroke="#263238" stroke-width="0.5" stroke-linecap="round" stroke-linejoin="round"/>
<path d="M176.644 246.773L176.74 244.812C176.74 244.152 176.921 243.511 177.008 242.898" stroke="#263238" stroke-width="0.5" stroke-linecap="round" stroke-linejoin="round"/>
<path d="M180.92 246.847L181.007 245.192C181.007 244.637 181.16 244.092 181.227 243.547" stroke="#263238" stroke-width="0.5" stroke-linecap="round" stroke-linejoin="round"/>
<path d="M176.74 244.812L181.006 245.195" stroke="#263238" stroke-width="0.5" stroke-linecap="round" stroke-linejoin="round"/>
<path d="M177.084 242.354C177.19 241.708 177.334 241.07 177.514 240.441C177.657 239.792 177.839 239.153 178.06 238.527" stroke="#263238" stroke-width="0.5" stroke-linecap="round" stroke-linejoin="round"/>
<path d="M181.293 243.121C181.38 242.575 181.502 242.035 181.656 241.504C181.775 240.962 181.928 240.428 182.116 239.906" stroke="#263238" stroke-width="0.5" stroke-linecap="round" stroke-linejoin="round"/>
<path d="M177.515 240.43L181.657 241.501" stroke="#263238" stroke-width="0.5" stroke-linecap="round" stroke-linejoin="round"/>
<path d="M178.231 238.067C178.471 237.455 178.652 236.824 178.949 236.231L179.8 234.461" stroke="#263238" stroke-width="0.5" stroke-linecap="round" stroke-linejoin="round"/>
<path d="M182.308 239.501C182.509 238.984 182.652 238.439 182.901 237.951L183.628 236.449" stroke="#263238" stroke-width="0.5" stroke-linecap="round" stroke-linejoin="round"/>
<path d="M178.949 236.23L182.862 237.952" stroke="#263238" stroke-width="0.5" stroke-linecap="round" stroke-linejoin="round"/>
<path d="M180.04 234C180.685 232.86 181.404 231.764 182.192 230.719" stroke="#263238" stroke-width="0.5" stroke-linecap="round" stroke-linejoin="round"/>
<path d="M183.78 236.071C184.331 235.109 184.941 234.183 185.607 233.297" stroke="#263238" stroke-width="0.5" stroke-linecap="round" stroke-linejoin="round"/>
<path d="M181.054 232.32L184.651 234.655" stroke="#263238" stroke-width="0.5" stroke-linecap="round" stroke-linejoin="round"/>
<path d="M182.5 230.308C182.889 229.78 183.315 229.278 183.772 228.806C184.221 228.338 184.633 227.85 185.13 227.391" stroke="#263238" stroke-width="0.5" stroke-linecap="round" stroke-linejoin="round"/>
<path d="M185.867 232.949C186.198 232.501 186.559 232.076 186.948 231.676C187.303 231.252 187.687 230.853 188.096 230.48" stroke="#263238" stroke-width="0.5" stroke-linecap="round" stroke-linejoin="round"/>
<path d="M183.771 228.809L186.948 231.679" stroke="#263238" stroke-width="0.5" stroke-linecap="round" stroke-linejoin="round"/>
<path d="M185.512 227.046C186.01 226.625 186.469 226.137 186.995 225.755L188.564 224.578" stroke="#263238" stroke-width="0.5" stroke-linecap="round" stroke-linejoin="round"/>
<path d="M188.411 230.196C188.832 229.832 189.215 229.421 189.664 229.105L190.994 228.148" stroke="#263238" stroke-width="0.5" stroke-linecap="round" stroke-linejoin="round"/>
<path d="M186.995 225.754L189.664 229.102" stroke="#263238" stroke-width="0.5" stroke-linecap="round" stroke-linejoin="round"/>
<path d="M189.004 224.292C190.098 223.573 191.243 222.933 192.429 222.379" stroke="#263238" stroke-width="0.5" stroke-linecap="round" stroke-linejoin="round"/>
<path d="M191.357 227.859C192.276 227.254 193.235 226.714 194.227 226.242" stroke="#263238" stroke-width="0.5" stroke-linecap="round" stroke-linejoin="round"/>
<path d="M190.668 223.266L192.773 226.997" stroke="#263238" stroke-width="0.5" stroke-linecap="round" stroke-linejoin="round"/>
<path d="M192.888 222.206C193.477 221.921 194.085 221.675 194.706 221.47C195.33 221.223 195.969 221.016 196.619 220.848" stroke="#263238" stroke-width="0.5" stroke-linecap="round" stroke-linejoin="round"/>
<path d="M194.648 226.033C195.144 225.795 195.655 225.591 196.179 225.421C196.692 225.208 197.219 225.032 197.757 224.895" stroke="#263238" stroke-width="0.5" stroke-linecap="round" stroke-linejoin="round"/>
<path d="M194.706 221.422L196.179 225.44" stroke="#263238" stroke-width="0.5" stroke-linecap="round" stroke-linejoin="round"/>
<path d="M197.068 220.668C197.709 220.525 198.331 220.314 198.982 220.218L200.895 219.922" stroke="#263238" stroke-width="0.5" stroke-linecap="round" stroke-linejoin="round"/>
<path d="M198.178 224.799C198.714 224.675 199.24 224.493 199.785 224.417L201.431 224.168" stroke="#263238" stroke-width="0.5" stroke-linecap="round" stroke-linejoin="round"/>
<path d="M198.981 220.215L199.785 224.415" stroke="#263238" stroke-width="0.5" stroke-linecap="round" stroke-linejoin="round"/>
<path d="M201.44 219.843C202.748 219.741 204.061 219.706 205.372 219.738" stroke="#263238" stroke-width="0.5" stroke-linecap="round" stroke-linejoin="round"/>
<path d="M201.861 224.12C202.971 224.12 204.071 223.957 205.181 224.024" stroke="#263238" stroke-width="0.5" stroke-linecap="round" stroke-linejoin="round"/>
<path d="M203.393 219.738L203.526 224.014" stroke="#263238" stroke-width="0.5" stroke-linecap="round" stroke-linejoin="round"/>
<path d="M205.869 219.758C207.177 219.835 208.478 220.005 209.763 220.265" stroke="#263238" stroke-width="0.5" stroke-linecap="round" stroke-linejoin="round"/>
<path d="M205.621 224.023C206.727 224.089 207.827 224.236 208.912 224.463" stroke="#263238" stroke-width="0.5" stroke-linecap="round" stroke-linejoin="round"/>
<path d="M207.83 219.945L207.275 224.183" stroke="#263238" stroke-width="0.5" stroke-linecap="round" stroke-linejoin="round"/>
<path d="M210.271 220.367C211.55 220.655 212.806 221.035 214.03 221.506" stroke="#263238" stroke-width="0.5" stroke-linecap="round" stroke-linejoin="round"/>
<path d="M209.333 224.539C210.412 224.784 211.473 225.104 212.509 225.496" stroke="#263238" stroke-width="0.5" stroke-linecap="round" stroke-linejoin="round"/>
<path d="M212.174 220.875L210.939 224.969" stroke="#263238" stroke-width="0.5" stroke-linecap="round" stroke-linejoin="round"/>
<path d="M214.518 221.688C215.734 222.179 216.914 222.758 218.048 223.419" stroke="#263238" stroke-width="0.5" stroke-linecap="round" stroke-linejoin="round"/>
<path d="M212.92 225.66C213.944 226.077 214.938 226.563 215.896 227.114" stroke="#263238" stroke-width="0.5" stroke-linecap="round" stroke-linejoin="round"/>
<path d="M216.307 222.492L214.432 226.338" stroke="#263238" stroke-width="0.5" stroke-linecap="round" stroke-linejoin="round"/>
<path d="M218.488 223.668C219.606 224.354 220.677 225.114 221.693 225.945" stroke="#263238" stroke-width="0.5" stroke-linecap="round" stroke-linejoin="round"/>
<path d="M216.278 227.332C217.223 227.907 218.128 228.547 218.986 229.245" stroke="#263238" stroke-width="0.5" stroke-linecap="round" stroke-linejoin="round"/>
<path d="M220.133 224.75L217.665 228.251" stroke="#263238" stroke-width="0.5" stroke-linecap="round" stroke-linejoin="round"/>
<path d="M222.095 226.273C223.087 227.127 224.024 228.044 224.898 229.019" stroke="#263238" stroke-width="0.5" stroke-linecap="round" stroke-linejoin="round"/>
<path d="M219.32 229.531C220.165 230.25 220.957 231.026 221.693 231.856" stroke="#263238" stroke-width="0.5" stroke-linecap="round" stroke-linejoin="round"/>
<path d="M223.539 227.602L220.545 230.653" stroke="#263238" stroke-width="0.5" stroke-linecap="round" stroke-linejoin="round"/>
<path d="M213.877 260.931C211.944 262.297 209.743 263.236 207.42 263.688C205.097 264.139 202.705 264.092 200.401 263.549C198.098 263.006 195.936 261.981 194.059 260.54C192.181 259.099 190.631 257.276 189.511 255.191" stroke="#263238" stroke-width="2" stroke-miterlimit="10"/>
<path d="M220.353 243.012C221.223 246.303 221.069 249.781 219.912 252.982C218.755 256.183 216.65 258.956 213.876 260.93" stroke="#00C1B6" stroke-width="5" stroke-miterlimit="10"/>
<path d="M192.151 235.78C194.199 233.636 196.78 232.076 199.631 231.261C202.481 230.446 205.497 230.404 208.369 231.14C211.241 231.877 213.865 233.365 215.971 235.451C218.077 237.538 219.589 240.148 220.353 243.012" stroke="#263238" stroke-width="2" stroke-miterlimit="10"/>
<path d="M189.501 255.182C187.845 252.081 187.21 248.536 187.685 245.053C188.161 241.569 189.724 238.325 192.151 235.781" stroke="#00C1B6" stroke-width="5" stroke-miterlimit="10"/>
<path d="M283.31 268.316C282.311 269.165 281.253 269.942 280.144 270.641" stroke="#263238" stroke-width="0.5" stroke-linecap="round" stroke-linejoin="round"/>
<path d="M280.526 265.055C279.686 265.777 278.794 266.436 277.857 267.025" stroke="#263238" stroke-width="0.5" stroke-linecap="round" stroke-linejoin="round"/>
<path d="M281.771 269.539L279.226 266.086" stroke="#263238" stroke-width="0.5" stroke-linecap="round" stroke-linejoin="round"/>
<path d="M279.713 270.918C278.586 271.59 277.417 272.187 276.212 272.707" stroke="#263238" stroke-width="0.5" stroke-linecap="round" stroke-linejoin="round"/>
<path d="M277.484 267.254C276.537 267.827 275.552 268.335 274.537 268.775" stroke="#263238" stroke-width="0.5" stroke-linecap="round" stroke-linejoin="round"/>
<path d="M277.991 271.878L276.04 268.07" stroke="#263238" stroke-width="0.5" stroke-linecap="round" stroke-linejoin="round"/>
<path d="M275.733 272.906C274.516 273.395 273.266 273.798 271.993 274.112" stroke="#263238" stroke-width="0.5" stroke-linecap="round" stroke-linejoin="round"/>
<path d="M274.146 268.938C273.12 269.354 272.065 269.693 270.989 269.952" stroke="#263238" stroke-width="0.5" stroke-linecap="round" stroke-linejoin="round"/>
<path d="M273.887 273.575L272.576 269.5" stroke="#263238" stroke-width="0.5" stroke-linecap="round" stroke-linejoin="round"/>
<path d="M271.496 274.227C270.218 274.516 268.92 274.711 267.612 274.81" stroke="#263238" stroke-width="0.5" stroke-linecap="round" stroke-linejoin="round"/>
<path d="M270.557 270.039C269.473 270.282 268.374 270.448 267.267 270.537" stroke="#263238" stroke-width="0.5" stroke-linecap="round" stroke-linejoin="round"/>
<path d="M269.563 274.592L268.922 270.363" stroke="#263238" stroke-width="0.5" stroke-linecap="round" stroke-linejoin="round"/>
<path d="M267.095 274.823C266.445 274.871 265.784 274.88 265.134 274.871L263.173 274.766" stroke="#263238" stroke-width="0.5" stroke-linecap="round" stroke-linejoin="round"/>
<path d="M266.837 270.584C266.282 270.584 265.727 270.632 265.172 270.584L263.517 270.508" stroke="#263238" stroke-width="0.5" stroke-linecap="round" stroke-linejoin="round"/>
<path d="M265.134 274.899L265.173 270.613" stroke="#263238" stroke-width="0.5" stroke-linecap="round" stroke-linejoin="round"/>
<path d="M262.666 274.823L260.753 274.536C260.427 274.479 260.102 274.441 259.796 274.374L258.839 274.125" stroke="#263238" stroke-width="0.5" stroke-linecap="round" stroke-linejoin="round"/>
<path d="M263.077 270.505L261.441 270.266C261.164 270.218 260.886 270.19 260.619 270.132L259.815 269.922" stroke="#263238" stroke-width="0.5" stroke-linecap="round" stroke-linejoin="round"/>
<path d="M260.714 274.488L261.441 270.27" stroke="#263238" stroke-width="0.5" stroke-linecap="round" stroke-linejoin="round"/>
<path d="M258.294 273.952C257.642 273.811 257.003 273.619 256.381 273.378C255.768 273.158 255.147 272.938 254.544 272.699" stroke="#263238" stroke-width="0.5" stroke-linecap="round" stroke-linejoin="round"/>
<path d="M259.394 269.82C258.854 269.698 258.323 269.538 257.806 269.341C257.29 269.14 256.763 268.968 256.256 268.758" stroke="#263238" stroke-width="0.5" stroke-linecap="round" stroke-linejoin="round"/>
<path d="M256.409 273.377L257.806 269.34" stroke="#263238" stroke-width="0.5" stroke-linecap="round" stroke-linejoin="round"/>
<path d="M254.104 272.467L252.334 271.616C251.77 271.29 251.215 270.946 250.65 270.602" stroke="#263238" stroke-width="0.5" stroke-linecap="round" stroke-linejoin="round"/>
<path d="M255.864 268.565L254.362 267.847L252.946 266.996" stroke="#263238" stroke-width="0.5" stroke-linecap="round" stroke-linejoin="round"/>
<path d="M252.334 271.617L254.363 267.848" stroke="#263238" stroke-width="0.5" stroke-linecap="round" stroke-linejoin="round"/>
<path d="M250.229 270.335C249.675 269.99 249.168 269.569 248.641 269.187L247.857 268.594L247.13 267.934" stroke="#263238" stroke-width="0.5" stroke-linecap="round" stroke-linejoin="round"/>
<path d="M252.573 266.769C252.105 266.482 251.674 266.118 251.225 265.812L250.564 265.314L249.952 264.75" stroke="#263238" stroke-width="0.5" stroke-linecap="round" stroke-linejoin="round"/>
<path d="M248.623 269.185L251.225 265.789" stroke="#263238" stroke-width="0.5" stroke-linecap="round" stroke-linejoin="round"/>
<path d="M246.728 267.591C246.232 267.164 245.766 266.704 245.332 266.214C244.892 265.726 244.442 265.257 244.021 264.75" stroke="#263238" stroke-width="0.5" stroke-linecap="round" stroke-linejoin="round"/>
<path d="M249.627 264.44C249.203 264.081 248.807 263.691 248.44 263.273C248.077 262.862 247.685 262.46 247.331 262.039" stroke="#263238" stroke-width="0.5" stroke-linecap="round" stroke-linejoin="round"/>
<path d="M245.331 266.21L248.44 263.273" stroke="#263238" stroke-width="0.5" stroke-linecap="round" stroke-linejoin="round"/>
<path d="M243.714 264.335L242.538 262.756L241.514 261.082" stroke="#263238" stroke-width="0.5" stroke-linecap="round" stroke-linejoin="round"/>
<path d="M247.073 261.687L246.078 260.357L245.217 258.941" stroke="#263238" stroke-width="0.5" stroke-linecap="round" stroke-linejoin="round"/>
<path d="M242.538 262.757L246.078 260.355" stroke="#263238" stroke-width="0.5" stroke-linecap="round" stroke-linejoin="round"/>
<path d="M241.247 260.646C240.921 260.072 240.663 259.469 240.376 258.885C240.233 258.589 240.08 258.292 239.955 257.996L239.611 257.039" stroke="#263238" stroke-width="0.5" stroke-linecap="round" stroke-linejoin="round"/>
<path d="M244.987 258.56C244.719 258.082 244.499 257.604 244.251 257.078C244.136 256.829 244.011 256.58 243.897 256.322L243.619 255.547" stroke="#263238" stroke-width="0.5" stroke-linecap="round" stroke-linejoin="round"/>
<path d="M240.376 258.884L244.25 257.086" stroke="#263238" stroke-width="0.5" stroke-linecap="round" stroke-linejoin="round"/>
<path d="M239.438 256.587C238.993 255.354 238.631 254.091 238.357 252.809" stroke="#263238" stroke-width="0.5" stroke-linecap="round" stroke-linejoin="round"/>
<path d="M243.466 255.143C243.081 254.102 242.761 253.038 242.51 251.957" stroke="#263238" stroke-width="0.5" stroke-linecap="round" stroke-linejoin="round"/>
<path d="M238.835 254.714L242.959 253.566" stroke="#263238" stroke-width="0.5" stroke-linecap="round" stroke-linejoin="round"/>
<path d="M238.28 252.3L237.984 250.387C237.898 249.736 237.898 249.086 237.859 248.426" stroke="#263238" stroke-width="0.5" stroke-linecap="round" stroke-linejoin="round"/>
<path d="M242.49 251.527L242.232 249.882C242.165 249.336 242.174 248.781 242.136 248.227" stroke="#263238" stroke-width="0.5" stroke-linecap="round" stroke-linejoin="round"/>
<path d="M237.985 250.352L242.232 249.883" stroke="#263238" stroke-width="0.5" stroke-linecap="round" stroke-linejoin="round"/>
<path d="M237.793 247.882C237.757 247.245 237.757 246.606 237.793 245.969C237.811 245.313 237.862 244.659 237.946 244.008" stroke="#263238" stroke-width="0.5" stroke-linecap="round" stroke-linejoin="round"/>
<path d="M242.108 247.796C242.07 247.242 242.07 246.686 242.108 246.132C242.116 245.578 242.157 245.025 242.232 244.477" stroke="#263238" stroke-width="0.5" stroke-linecap="round" stroke-linejoin="round"/>
<path d="M237.87 245.922L242.146 246.132" stroke="#263238" stroke-width="0.5" stroke-linecap="round" stroke-linejoin="round"/>
<path d="M238.099 243.452C238.213 242.811 238.28 242.151 238.424 241.538L238.912 239.625" stroke="#263238" stroke-width="0.5" stroke-linecap="round" stroke-linejoin="round"/>
<path d="M242.337 244.048C242.433 243.502 242.48 242.948 242.605 242.412L243.026 240.805" stroke="#263238" stroke-width="0.5" stroke-linecap="round" stroke-linejoin="round"/>
<path d="M238.425 241.512L242.605 242.411" stroke="#263238" stroke-width="0.5" stroke-linecap="round" stroke-linejoin="round"/>
<path d="M239.047 239.11C239.454 237.865 239.939 236.648 240.501 235.465" stroke="#263238" stroke-width="0.5" stroke-linecap="round" stroke-linejoin="round"/>
<path d="M243.131 240.381C243.474 239.328 243.886 238.299 244.365 237.301" stroke="#263238" stroke-width="0.5" stroke-linecap="round" stroke-linejoin="round"/>
<path d="M239.716 237.266L243.706 238.825" stroke="#263238" stroke-width="0.5" stroke-linecap="round" stroke-linejoin="round"/>
<path d="M240.72 234.996L241.16 234.116L241.667 233.274C242.012 232.719 242.327 232.136 242.71 231.609" stroke="#263238" stroke-width="0.5" stroke-linecap="round" stroke-linejoin="round"/>
<path d="M244.557 236.911L244.911 236.165L245.351 235.457C245.647 234.988 245.896 234.5 246.231 234.051" stroke="#263238" stroke-width="0.5" stroke-linecap="round" stroke-linejoin="round"/>
<path d="M241.667 233.273L245.35 235.455" stroke="#263238" stroke-width="0.5" stroke-linecap="round" stroke-linejoin="round"/>
<path d="M243.017 231.197C243.418 230.68 243.791 230.145 244.212 229.638L245.533 228.184" stroke="#263238" stroke-width="0.5" stroke-linecap="round" stroke-linejoin="round"/>
<path d="M246.489 233.683C246.824 233.243 247.139 232.784 247.493 232.353L248.613 231.129" stroke="#263238" stroke-width="0.5" stroke-linecap="round" stroke-linejoin="round"/>
<path d="M244.211 229.637L247.493 232.373" stroke="#263238" stroke-width="0.5" stroke-linecap="round" stroke-linejoin="round"/>
<path d="M245.877 227.804C246.818 226.892 247.815 226.039 248.862 225.25" stroke="#263238" stroke-width="0.5" stroke-linecap="round" stroke-linejoin="round"/>
<path d="M248.899 230.817C249.696 230.048 250.539 229.329 251.424 228.664" stroke="#263238" stroke-width="0.5" stroke-linecap="round" stroke-linejoin="round"/>
<path d="M247.331 226.484L250.134 229.708" stroke="#263238" stroke-width="0.5" stroke-linecap="round" stroke-linejoin="round"/>
<path d="M249.272 224.942C249.531 224.75 249.789 224.54 250.066 224.358L250.908 223.851C251.473 223.526 252.008 223.143 252.602 222.895" stroke="#263238" stroke-width="0.5" stroke-linecap="round" stroke-linejoin="round"/>
<path d="M251.779 228.407C251.999 228.244 252.219 228.072 252.448 227.919L253.156 227.489C253.62 227.187 254.099 226.909 254.591 226.656" stroke="#263238" stroke-width="0.5" stroke-linecap="round" stroke-linejoin="round"/>
<path d="M250.909 223.852L253.157 227.487" stroke="#263238" stroke-width="0.5" stroke-linecap="round" stroke-linejoin="round"/>
<path d="M253.1 222.637C253.702 222.359 254.276 222.053 254.889 221.804L256.735 221.125" stroke="#263238" stroke-width="0.5" stroke-linecap="round" stroke-linejoin="round"/>
<path d="M255.013 226.464C255.511 226.234 255.97 225.966 256.515 225.756L258.074 225.191" stroke="#263238" stroke-width="0.5" stroke-linecap="round" stroke-linejoin="round"/>
<path d="M254.85 221.805L256.485 225.756" stroke="#263238" stroke-width="0.5" stroke-linecap="round" stroke-linejoin="round"/>
<path d="M257.175 220.953C258.429 220.577 259.708 220.286 261.001 220.082" stroke="#263238" stroke-width="0.5" stroke-linecap="round" stroke-linejoin="round"/>
<path d="M258.447 225.075C259.511 224.761 260.594 224.518 261.69 224.348" stroke="#263238" stroke-width="0.5" stroke-linecap="round" stroke-linejoin="round"/>
<path d="M259.079 220.453L260.064 224.624" stroke="#263238" stroke-width="0.5" stroke-linecap="round" stroke-linejoin="round"/>
<path d="M261.518 220.005L262.474 219.862C262.799 219.862 263.125 219.862 263.431 219.795L265.392 219.699" stroke="#263238" stroke-width="0.5" stroke-linecap="round" stroke-linejoin="round"/>
<path d="M262.12 224.243L262.933 224.118C263.211 224.118 263.488 224.118 263.766 224.061L265.43 223.984" stroke="#263238" stroke-width="0.5" stroke-linecap="round" stroke-linejoin="round"/>
<path d="M263.47 219.797L263.766 224.064" stroke="#263238" stroke-width="0.5" stroke-linecap="round" stroke-linejoin="round"/>
<path d="M265.948 219.73L267.909 219.826C268.559 219.826 269.21 220.008 269.822 220.094" stroke="#263238" stroke-width="0.5" stroke-linecap="round" stroke-linejoin="round"/>
<path d="M265.861 224.004L267.525 224.09C268.08 224.09 268.616 224.243 269.171 224.31" stroke="#263238" stroke-width="0.5" stroke-linecap="round" stroke-linejoin="round"/>
<path d="M267.908 219.824L267.525 224.091" stroke="#263238" stroke-width="0.5" stroke-linecap="round" stroke-linejoin="round"/>
<path d="M270.319 220.168C270.965 220.273 271.604 220.417 272.233 220.598C272.881 220.74 273.52 220.922 274.146 221.144" stroke="#263238" stroke-width="0.5" stroke-linecap="round" stroke-linejoin="round"/>
<path d="M269.602 224.379C270.147 224.468 270.687 224.59 271.218 224.742C271.757 224.862 272.287 225.015 272.806 225.202" stroke="#263238" stroke-width="0.5" stroke-linecap="round" stroke-linejoin="round"/>
<path d="M272.28 220.598L271.218 224.74" stroke="#263238" stroke-width="0.5" stroke-linecap="round" stroke-linejoin="round"/>
<path d="M274.653 221.316C275.265 221.556 275.896 221.737 276.48 222.034L278.259 222.885" stroke="#263238" stroke-width="0.5" stroke-linecap="round" stroke-linejoin="round"/>
<path d="M273.189 225.352C273.706 225.552 274.241 225.696 274.739 225.945L276.231 226.672" stroke="#263238" stroke-width="0.5" stroke-linecap="round" stroke-linejoin="round"/>
<path d="M276.48 222.035L274.768 225.948" stroke="#263238" stroke-width="0.5" stroke-linecap="round" stroke-linejoin="round"/>
<path d="M278.709 223.164C279.85 223.806 280.947 224.526 281.99 225.317" stroke="#263238" stroke-width="0.5" stroke-linecap="round" stroke-linejoin="round"/>
<path d="M276.642 226.863C277.607 227.408 278.534 228.019 279.416 228.69" stroke="#263238" stroke-width="0.5" stroke-linecap="round" stroke-linejoin="round"/>
<path d="M280.393 224.137L278.068 227.734" stroke="#263238" stroke-width="0.5" stroke-linecap="round" stroke-linejoin="round"/>
<path d="M282.402 225.582C282.93 225.972 283.432 226.397 283.904 226.854C284.401 227.28 284.874 227.734 285.32 228.213" stroke="#263238" stroke-width="0.5" stroke-linecap="round" stroke-linejoin="round"/>
<path d="M279.771 228.949C280.632 229.645 281.453 230.389 282.23 231.178" stroke="#263238" stroke-width="0.5" stroke-linecap="round" stroke-linejoin="round"/>
<path d="M283.903 226.855L281.033 230.032" stroke="#263238" stroke-width="0.5" stroke-linecap="round" stroke-linejoin="round"/>
<path d="M285.626 228.594C286.056 229.091 286.535 229.55 286.917 230.077L288.094 231.645" stroke="#263238" stroke-width="0.5" stroke-linecap="round" stroke-linejoin="round"/>
<path d="M282.526 231.496C282.88 231.917 283.291 232.3 283.616 232.749L284.573 234.079" stroke="#263238" stroke-width="0.5" stroke-linecap="round" stroke-linejoin="round"/>
<path d="M286.955 230.078L283.616 232.747" stroke="#263238" stroke-width="0.5" stroke-linecap="round" stroke-linejoin="round"/>
<path d="M288.419 232.078C289.138 233.172 289.778 234.317 290.332 235.503" stroke="#263238" stroke-width="0.5" stroke-linecap="round" stroke-linejoin="round"/>
<path d="M284.851 234.441C285.455 235.36 285.995 236.319 286.467 237.311" stroke="#263238" stroke-width="0.5" stroke-linecap="round" stroke-linejoin="round"/>
<path d="M289.443 233.75L285.722 235.855" stroke="#263238" stroke-width="0.5" stroke-linecap="round" stroke-linejoin="round"/>
<path d="M290.562 235.973C290.842 236.564 291.088 237.171 291.298 237.79C291.539 238.399 291.744 239.022 291.91 239.656" stroke="#263238" stroke-width="0.5" stroke-linecap="round" stroke-linejoin="round"/>
<path d="M286.659 237.73C286.9 238.226 287.108 238.738 287.281 239.261C287.485 239.777 287.661 240.304 287.807 240.84" stroke="#263238" stroke-width="0.5" stroke-linecap="round" stroke-linejoin="round"/>
<path d="M291.298 237.789L287.28 239.262" stroke="#263238" stroke-width="0.5" stroke-linecap="round" stroke-linejoin="round"/>
<path d="M292.044 240.152C292.197 240.793 292.398 241.415 292.504 242.066L292.8 243.979" stroke="#263238" stroke-width="0.5" stroke-linecap="round" stroke-linejoin="round"/>
<path d="M287.912 241.266C288.036 241.801 288.218 242.327 288.294 242.873L288.553 244.518" stroke="#263238" stroke-width="0.5" stroke-linecap="round" stroke-linejoin="round"/>
<path d="M292.504 242.066L288.294 242.87" stroke="#263238" stroke-width="0.5" stroke-linecap="round" stroke-linejoin="round"/>
<path d="M292.868 244.516C292.916 245.826 293.059 247.137 292.982 248.447" stroke="#263238" stroke-width="0.5" stroke-linecap="round" stroke-linejoin="round"/>
<path d="M288.61 244.945C288.61 246.055 288.783 247.155 288.706 248.265" stroke="#263238" stroke-width="0.5" stroke-linecap="round" stroke-linejoin="round"/>
<path d="M292.972 246.477L288.696 246.611" stroke="#263238" stroke-width="0.5" stroke-linecap="round" stroke-linejoin="round"/>
<path d="M292.962 248.992C292.877 250.3 292.704 251.601 292.446 252.886" stroke="#263238" stroke-width="0.5" stroke-linecap="round" stroke-linejoin="round"/>
<path d="M288.686 248.703C288.62 249.809 288.476 250.908 288.256 251.994" stroke="#263238" stroke-width="0.5" stroke-linecap="round" stroke-linejoin="round"/>
<path d="M292.772 250.905L288.524 250.359" stroke="#263238" stroke-width="0.5" stroke-linecap="round" stroke-linejoin="round"/>
<path d="M292.322 253.352C292.034 254.631 291.653 255.887 291.183 257.111" stroke="#263238" stroke-width="0.5" stroke-linecap="round" stroke-linejoin="round"/>
<path d="M288.17 252.418C287.928 253.498 287.608 254.56 287.213 255.594" stroke="#263238" stroke-width="0.5" stroke-linecap="round" stroke-linejoin="round"/>
<path d="M291.844 255.257L287.74 254.023" stroke="#263238" stroke-width="0.5" stroke-linecap="round" stroke-linejoin="round"/>
<path d="M291.03 257.602C290.531 258.815 289.952 259.994 289.299 261.132" stroke="#263238" stroke-width="0.5" stroke-linecap="round" stroke-linejoin="round"/>
<path d="M287.061 256.004C286.641 257.028 286.152 258.022 285.597 258.979" stroke="#263238" stroke-width="0.5" stroke-linecap="round" stroke-linejoin="round"/>
<path d="M290.217 259.391L286.372 257.516" stroke="#263238" stroke-width="0.5" stroke-linecap="round" stroke-linejoin="round"/>
<path d="M289.041 261.57C288.355 262.687 287.598 263.757 286.773 264.775" stroke="#263238" stroke-width="0.5" stroke-linecap="round" stroke-linejoin="round"/>
<path d="M285.377 259.359C284.801 260.304 284.162 261.209 283.463 262.067" stroke="#263238" stroke-width="0.5" stroke-linecap="round" stroke-linejoin="round"/>
<path d="M287.96 263.22L284.468 260.742" stroke="#263238" stroke-width="0.5" stroke-linecap="round" stroke-linejoin="round"/>
<path d="M286.448 265.168C285.594 266.166 284.674 267.106 283.693 267.981" stroke="#263238" stroke-width="0.5" stroke-linecap="round" stroke-linejoin="round"/>
<path d="M283.186 262.387C282.454 263.231 281.671 264.03 280.842 264.778" stroke="#263238" stroke-width="0.5" stroke-linecap="round" stroke-linejoin="round"/>
<path d="M285.118 266.623L282.057 263.629" stroke="#263238" stroke-width="0.5" stroke-linecap="round" stroke-linejoin="round"/>
<path d="M251.779 256.952C250.413 255.019 249.474 252.818 249.022 250.495C248.571 248.172 248.618 245.78 249.161 243.476C249.704 241.173 250.729 239.011 252.17 237.133C253.611 235.256 255.434 233.706 257.519 232.586" stroke="#263238" stroke-width="2" stroke-miterlimit="10"/>
<path d="M269.706 263.439C266.413 264.309 262.933 264.154 259.73 262.995C256.527 261.837 253.753 259.729 251.779 256.953" stroke="#00C1B6" stroke-width="5" stroke-miterlimit="10"/>
<path d="M276.93 235.234C279.074 237.282 280.634 239.863 281.45 242.712C282.266 245.562 282.308 248.578 281.573 251.449C280.837 254.321 279.351 256.945 277.265 259.052C275.18 261.158 272.571 262.672 269.707 263.436" stroke="#263238" stroke-width="2" stroke-miterlimit="10"/>
<path d="M257.528 232.587C260.63 230.931 264.174 230.295 267.658 230.771C271.141 231.247 274.386 232.81 276.929 235.237" stroke="#00C1B6" stroke-width="5" stroke-miterlimit="10"/>
<path d="M299.085 249.459C298.994 248.15 298.994 246.836 299.085 245.527" stroke="#263238" stroke-width="0.5" stroke-linecap="round" stroke-linejoin="round"/>
<path d="M303.352 249.124C303.271 248.019 303.271 246.91 303.352 245.805" stroke="#263238" stroke-width="0.5" stroke-linecap="round" stroke-linejoin="round"/>
<path d="M299 247.499L303.285 247.461" stroke="#263238" stroke-width="0.5" stroke-linecap="round" stroke-linejoin="round"/>
<path d="M299.095 245.021C299.208 243.714 299.41 242.416 299.697 241.137" stroke="#263238" stroke-width="0.5" stroke-linecap="round" stroke-linejoin="round"/>
<path d="M303.362 245.367C303.455 244.263 303.624 243.167 303.869 242.086" stroke="#263238" stroke-width="0.5" stroke-linecap="round" stroke-linejoin="round"/>
<path d="M299.325 243.07L303.553 243.721" stroke="#263238" stroke-width="0.5" stroke-linecap="round" stroke-linejoin="round"/>
<path d="M299.822 240.643C300.13 239.367 300.536 238.116 301.037 236.902" stroke="#263238" stroke-width="0.5" stroke-linecap="round" stroke-linejoin="round"/>
<path d="M303.974 241.663C304.234 240.589 304.576 239.537 304.997 238.516" stroke="#263238" stroke-width="0.5" stroke-linecap="round" stroke-linejoin="round"/>
<path d="M300.357 238.746L304.423 240.076" stroke="#263238" stroke-width="0.5" stroke-linecap="round" stroke-linejoin="round"/>
<path d="M301.237 236.424C301.754 235.22 302.358 234.056 303.045 232.941" stroke="#263238" stroke-width="0.5" stroke-linecap="round" stroke-linejoin="round"/>
<path d="M305.16 238.114C305.598 237.096 306.109 236.111 306.691 235.168" stroke="#263238" stroke-width="0.5" stroke-linecap="round" stroke-linejoin="round"/>
<path d="M302.079 234.648L305.877 236.61" stroke="#263238" stroke-width="0.5" stroke-linecap="round" stroke-linejoin="round"/>
<path d="M303.314 232.499C303.658 231.944 304.031 231.408 304.433 230.882L305.658 229.352" stroke="#263238" stroke-width="0.5" stroke-linecap="round" stroke-linejoin="round"/>
<path d="M306.92 234.796C307.217 234.327 307.533 233.84 307.877 233.428L308.92 232.137" stroke="#263238" stroke-width="0.5" stroke-linecap="round" stroke-linejoin="round"/>
<path d="M304.434 230.883L307.868 233.427" stroke="#263238" stroke-width="0.5" stroke-linecap="round" stroke-linejoin="round"/>
<path d="M305.982 228.961C306.432 228.483 306.939 228.004 307.36 227.555C307.59 227.325 307.81 227.076 308.058 226.856L308.814 226.234" stroke="#263238" stroke-width="0.5" stroke-linecap="round" stroke-linejoin="round"/>
<path d="M309.188 231.774L310.345 230.588C310.546 230.387 310.728 230.186 310.938 229.995L311.579 229.469" stroke="#263238" stroke-width="0.5" stroke-linecap="round" stroke-linejoin="round"/>
<path d="M307.36 227.555L310.345 230.616" stroke="#263238" stroke-width="0.5" stroke-linecap="round" stroke-linejoin="round"/>
<path d="M309.207 225.898C309.704 225.47 310.228 225.074 310.775 224.712C311.321 224.348 311.856 223.975 312.411 223.621" stroke="#263238" stroke-width="0.5" stroke-linecap="round" stroke-linejoin="round"/>
<path d="M311.914 229.218C312.328 228.865 312.77 228.545 313.234 228.261C313.693 227.955 314.143 227.63 314.612 227.305" stroke="#263238" stroke-width="0.5" stroke-linecap="round" stroke-linejoin="round"/>
<path d="M310.775 224.711L313.233 228.222" stroke="#263238" stroke-width="0.5" stroke-linecap="round" stroke-linejoin="round"/>
<path d="M312.861 223.382L314.602 222.425C315.196 222.158 315.808 221.918 316.41 221.66" stroke="#263238" stroke-width="0.5" stroke-linecap="round" stroke-linejoin="round"/>
<path d="M314.995 227.095L316.458 226.301L317.989 225.66" stroke="#263238" stroke-width="0.5" stroke-linecap="round" stroke-linejoin="round"/>
<path d="M314.603 222.445L316.458 226.301" stroke="#263238" stroke-width="0.5" stroke-linecap="round" stroke-linejoin="round"/>
<path d="M316.879 221.479C317.492 221.24 318.123 221.077 318.745 220.867L319.701 220.58L320.658 220.379" stroke="#263238" stroke-width="0.5" stroke-linecap="round" stroke-linejoin="round"/>
<path d="M318.381 225.49C318.897 225.28 319.443 225.156 319.969 224.974L320.753 224.725L321.576 224.562" stroke="#263238" stroke-width="0.5" stroke-linecap="round" stroke-linejoin="round"/>
<path d="M318.745 220.867L319.969 224.971" stroke="#263238" stroke-width="0.5" stroke-linecap="round" stroke-linejoin="round"/>
<path d="M321.155 220.292C321.785 220.142 322.424 220.033 323.069 219.967C323.719 219.9 324.37 219.813 324.982 219.766" stroke="#263238" stroke-width="0.5" stroke-linecap="round" stroke-linejoin="round"/>
<path d="M321.978 224.473C322.515 224.338 323.062 224.245 323.614 224.196C324.169 224.138 324.714 224.062 325.269 224.023" stroke="#263238" stroke-width="0.5" stroke-linecap="round" stroke-linejoin="round"/>
<path d="M323.088 219.945L323.633 224.193" stroke="#263238" stroke-width="0.5" stroke-linecap="round" stroke-linejoin="round"/>
<path d="M325.556 219.747L327.526 219.719L329.488 219.872" stroke="#263238" stroke-width="0.5" stroke-linecap="round" stroke-linejoin="round"/>
<path d="M325.719 224.011L327.384 223.992L329.039 224.126" stroke="#263238" stroke-width="0.5" stroke-linecap="round" stroke-linejoin="round"/>
<path d="M327.526 219.719L327.383 223.995" stroke="#263238" stroke-width="0.5" stroke-linecap="round" stroke-linejoin="round"/>
<path d="M329.995 219.922C330.645 219.998 331.286 220.132 331.908 220.247L332.865 220.429L333.821 220.697" stroke="#263238" stroke-width="0.5" stroke-linecap="round" stroke-linejoin="round"/>
<path d="M329.469 224.117C330.024 224.184 330.559 224.309 331.105 224.404C331.382 224.452 331.659 224.49 331.927 224.548L332.721 224.777" stroke="#263238" stroke-width="0.5" stroke-linecap="round" stroke-linejoin="round"/>
<path d="M331.937 220.246L331.104 224.446" stroke="#263238" stroke-width="0.5" stroke-linecap="round" stroke-linejoin="round"/>
<path d="M334.338 220.828C335.596 221.199 336.83 221.65 338.031 222.177" stroke="#263238" stroke-width="0.5" stroke-linecap="round" stroke-linejoin="round"/>
<path d="M333.142 224.941C334.204 225.252 335.246 225.629 336.261 226.07" stroke="#263238" stroke-width="0.5" stroke-linecap="round" stroke-linejoin="round"/>
<path d="M336.204 221.449L334.711 225.458" stroke="#263238" stroke-width="0.5" stroke-linecap="round" stroke-linejoin="round"/>
<path d="M338.49 222.406L340.24 223.363C340.814 223.679 341.341 224.061 341.895 224.415" stroke="#263238" stroke-width="0.5" stroke-linecap="round" stroke-linejoin="round"/>
<path d="M336.643 226.273L338.116 227.029C338.604 227.297 339.073 227.632 339.523 227.928" stroke="#263238" stroke-width="0.5" stroke-linecap="round" stroke-linejoin="round"/>
<path d="M340.24 223.316L338.116 227.028" stroke="#263238" stroke-width="0.5" stroke-linecap="round" stroke-linejoin="round"/>
<path d="M342.326 224.645C343.394 225.403 344.416 226.224 345.387 227.103" stroke="#263238" stroke-width="0.5" stroke-linecap="round" stroke-linejoin="round"/>
<path d="M339.887 228.156C340.347 228.446 340.788 228.765 341.207 229.113C341.652 229.447 342.077 229.808 342.479 230.194" stroke="#263238" stroke-width="0.5" stroke-linecap="round" stroke-linejoin="round"/>
<path d="M343.895 225.832L341.207 229.161" stroke="#263238" stroke-width="0.5" stroke-linecap="round" stroke-linejoin="round"/>
<path d="M345.751 227.457C346.21 227.926 346.708 228.366 347.138 228.863L348.391 230.375" stroke="#263238" stroke-width="0.5" stroke-linecap="round" stroke-linejoin="round"/>
<path d="M342.785 230.547C343.168 230.939 343.589 231.303 343.952 231.724L345.014 233.005" stroke="#263238" stroke-width="0.5" stroke-linecap="round" stroke-linejoin="round"/>
<path d="M347.138 228.863L343.952 231.724" stroke="#263238" stroke-width="0.5" stroke-linecap="round" stroke-linejoin="round"/>
<path d="M348.764 230.816C349.532 231.88 350.232 232.992 350.859 234.146" stroke="#263238" stroke-width="0.5" stroke-linecap="round" stroke-linejoin="round"/>
<path d="M345.292 233.332C345.934 234.236 346.525 235.175 347.061 236.145" stroke="#263238" stroke-width="0.5" stroke-linecap="round" stroke-linejoin="round"/>
<path d="M349.816 232.402L346.219 234.708" stroke="#263238" stroke-width="0.5" stroke-linecap="round" stroke-linejoin="round"/>
<path d="M351.06 234.547L351.519 235.417L351.902 236.326C352.141 236.929 352.438 237.522 352.629 238.144" stroke="#263238" stroke-width="0.5" stroke-linecap="round" stroke-linejoin="round"/>
<path d="M347.262 236.555L347.654 237.282L347.98 238.047C348.181 238.564 348.429 239.061 348.592 239.587" stroke="#263238" stroke-width="0.5" stroke-linecap="round" stroke-linejoin="round"/>
<path d="M351.902 236.324L347.979 238.017" stroke="#263238" stroke-width="0.5" stroke-linecap="round" stroke-linejoin="round"/>
<path d="M352.782 238.641C352.974 239.262 353.184 239.884 353.356 240.554L353.758 242.467" stroke="#263238" stroke-width="0.5" stroke-linecap="round" stroke-linejoin="round"/>
<path d="M348.764 239.98C348.917 240.507 349.098 241.033 349.242 241.569L349.586 243.195" stroke="#263238" stroke-width="0.5" stroke-linecap="round" stroke-linejoin="round"/>
<path d="M353.356 240.516L349.204 241.568" stroke="#263238" stroke-width="0.5" stroke-linecap="round" stroke-linejoin="round"/>
<path d="M353.863 242.945C354.05 244.242 354.155 245.548 354.179 246.858" stroke="#263238" stroke-width="0.5" stroke-linecap="round" stroke-linejoin="round"/>
<path d="M349.635 243.617C349.792 244.717 349.879 245.826 349.893 246.937" stroke="#263238" stroke-width="0.5" stroke-linecap="round" stroke-linejoin="round"/>
<path d="M354.084 244.898L349.817 245.272" stroke="#263238" stroke-width="0.5" stroke-linecap="round" stroke-linejoin="round"/>
<path d="M354.179 247.375C354.179 247.7 354.179 248.026 354.179 248.332L354.093 249.288C354.026 249.939 354.026 250.599 353.902 251.202" stroke="#263238" stroke-width="0.5" stroke-linecap="round" stroke-linejoin="round"/>
<path d="M349.903 247.367C349.903 247.645 349.903 247.922 349.903 248.199L349.826 249.022C349.801 249.576 349.747 250.129 349.664 250.677" stroke="#263238" stroke-width="0.5" stroke-linecap="round" stroke-linejoin="round"/>
<path d="M354.102 249.335L349.835 249.02" stroke="#263238" stroke-width="0.5" stroke-linecap="round" stroke-linejoin="round"/>
<path d="M353.815 251.797C353.691 252.438 353.605 253.088 353.452 253.71L352.906 255.623" stroke="#263238" stroke-width="0.5" stroke-linecap="round" stroke-linejoin="round"/>
<path d="M349.597 251.105C349.492 251.641 349.415 252.196 349.291 252.732L348.832 254.329" stroke="#263238" stroke-width="0.5" stroke-linecap="round" stroke-linejoin="round"/>
<path d="M353.451 253.729L349.29 252.734" stroke="#263238" stroke-width="0.5" stroke-linecap="round" stroke-linejoin="round"/>
<path d="M352.773 256.109C352.335 257.347 351.818 258.555 351.223 259.726" stroke="#263238" stroke-width="0.5" stroke-linecap="round" stroke-linejoin="round"/>
<path d="M348.765 254.73C348.391 255.771 347.953 256.787 347.454 257.773" stroke="#263238" stroke-width="0.5" stroke-linecap="round" stroke-linejoin="round"/>
<path d="M352.055 257.948L348.104 256.293" stroke="#263238" stroke-width="0.5" stroke-linecap="round" stroke-linejoin="round"/>
<path d="M350.984 260.184L350.534 261.054C350.372 261.341 350.18 261.609 350.008 261.886L348.937 263.532" stroke="#263238" stroke-width="0.5" stroke-linecap="round" stroke-linejoin="round"/>
<path d="M347.205 258.184L346.832 258.92C346.688 259.159 346.525 259.389 346.382 259.619L345.473 261.015" stroke="#263238" stroke-width="0.5" stroke-linecap="round" stroke-linejoin="round"/>
<path d="M350.008 261.888L346.382 259.621" stroke="#263238" stroke-width="0.5" stroke-linecap="round" stroke-linejoin="round"/>
<path d="M348.61 263.926L347.376 265.456C346.965 265.973 346.477 266.413 346.027 266.882" stroke="#263238" stroke-width="0.5" stroke-linecap="round" stroke-linejoin="round"/>
<path d="M345.197 261.352L344.154 262.643C343.809 263.083 343.389 263.447 343.006 263.848" stroke="#263238" stroke-width="0.5" stroke-linecap="round" stroke-linejoin="round"/>
<path d="M347.377 265.457L344.153 262.645" stroke="#263238" stroke-width="0.5" stroke-linecap="round" stroke-linejoin="round"/>
<path d="M345.664 267.246C345.203 267.712 344.711 268.147 344.191 268.547C343.698 268.979 343.181 269.381 342.641 269.753" stroke="#263238" stroke-width="0.5" stroke-linecap="round" stroke-linejoin="round"/>
<path d="M342.709 264.156C342.316 264.551 341.897 264.918 341.455 265.256C341.045 265.627 340.611 265.969 340.154 266.28" stroke="#263238" stroke-width="0.5" stroke-linecap="round" stroke-linejoin="round"/>
<path d="M344.192 268.545L341.456 265.254" stroke="#263238" stroke-width="0.5" stroke-linecap="round" stroke-linejoin="round"/>
<path d="M342.211 270.039C341.666 270.393 341.14 270.804 340.566 271.111L338.834 272.067" stroke="#263238" stroke-width="0.5" stroke-linecap="round" stroke-linejoin="round"/>
<path d="M339.791 266.52C339.322 266.816 338.892 267.16 338.404 267.419L336.94 268.203" stroke="#263238" stroke-width="0.5" stroke-linecap="round" stroke-linejoin="round"/>
<path d="M340.566 271.111L338.404 267.418" stroke="#263238" stroke-width="0.5" stroke-linecap="round" stroke-linejoin="round"/>
<path d="M338.375 272.266C337.183 272.814 335.956 273.28 334.701 273.662" stroke="#263238" stroke-width="0.5" stroke-linecap="round" stroke-linejoin="round"/>
<path d="M336.548 268.402C335.541 268.861 334.506 269.254 333.449 269.579" stroke="#263238" stroke-width="0.5" stroke-linecap="round" stroke-linejoin="round"/>
<path d="M336.557 273.032L335.017 269.043" stroke="#263238" stroke-width="0.5" stroke-linecap="round" stroke-linejoin="round"/>
<path d="M334.204 273.863C333.578 274.064 332.939 274.22 332.291 274.332C331.66 274.484 331.021 274.599 330.377 274.676" stroke="#263238" stroke-width="0.5" stroke-linecap="round" stroke-linejoin="round"/>
<path d="M333.028 269.703C332.502 269.872 331.965 270.003 331.421 270.095C330.882 270.227 330.335 270.326 329.785 270.392" stroke="#263238" stroke-width="0.5" stroke-linecap="round" stroke-linejoin="round"/>
<path d="M332.3 274.284L331.42 270.094" stroke="#263238" stroke-width="0.5" stroke-linecap="round" stroke-linejoin="round"/>
<path d="M329.861 274.688C329.211 274.778 328.556 274.836 327.9 274.86H325.939" stroke="#263238" stroke-width="0.5" stroke-linecap="round" stroke-linejoin="round"/>
<path d="M329.354 270.438C328.799 270.438 328.254 270.591 327.699 270.591H326.034" stroke="#263238" stroke-width="0.5" stroke-linecap="round" stroke-linejoin="round"/>
<path d="M327.899 274.86L327.698 270.594" stroke="#263238" stroke-width="0.5" stroke-linecap="round" stroke-linejoin="round"/>
<path d="M325.422 274.879C324.111 274.814 322.807 274.657 321.519 274.41" stroke="#263238" stroke-width="0.5" stroke-linecap="round" stroke-linejoin="round"/>
<path d="M325.604 270.603C324.497 270.544 323.394 270.413 322.304 270.211" stroke="#263238" stroke-width="0.5" stroke-linecap="round" stroke-linejoin="round"/>
<path d="M323.461 274.716L323.949 270.469" stroke="#263238" stroke-width="0.5" stroke-linecap="round" stroke-linejoin="round"/>
<path d="M321.021 274.321C319.741 274.04 318.479 273.683 317.242 273.25" stroke="#263238" stroke-width="0.5" stroke-linecap="round" stroke-linejoin="round"/>
<path d="M321.883 270.134C320.801 269.897 319.734 269.596 318.688 269.234" stroke="#263238" stroke-width="0.5" stroke-linecap="round" stroke-linejoin="round"/>
<path d="M319.108 273.844L320.276 269.73" stroke="#263238" stroke-width="0.5" stroke-linecap="round" stroke-linejoin="round"/>
<path d="M316.755 273.069C316.152 272.811 315.52 272.61 314.937 272.313L313.196 271.414" stroke="#263238" stroke-width="0.5" stroke-linecap="round" stroke-linejoin="round"/>
<path d="M318.285 269.08C317.778 268.86 317.243 268.698 316.755 268.449L315.272 267.684" stroke="#263238" stroke-width="0.5" stroke-linecap="round" stroke-linejoin="round"/>
<path d="M314.937 272.316L316.755 268.441" stroke="#263238" stroke-width="0.5" stroke-linecap="round" stroke-linejoin="round"/>
<path d="M312.737 271.176C311.646 270.449 310.508 269.789 309.494 268.957" stroke="#263238" stroke-width="0.5" stroke-linecap="round" stroke-linejoin="round"/>
<path d="M314.89 267.476C313.981 266.854 312.976 266.309 312.144 265.562" stroke="#263238" stroke-width="0.5" stroke-linecap="round" stroke-linejoin="round"/>
<path d="M311.091 270.106L313.502 266.566" stroke="#263238" stroke-width="0.5" stroke-linecap="round" stroke-linejoin="round"/>
<path d="M309.092 268.641C308.073 267.807 307.114 266.902 306.222 265.934" stroke="#263238" stroke-width="0.5" stroke-linecap="round" stroke-linejoin="round"/>
<path d="M311.809 265.329C310.95 264.627 310.145 263.863 309.398 263.043" stroke="#263238" stroke-width="0.5" stroke-linecap="round" stroke-linejoin="round"/>
<path d="M307.619 267.34L310.565 264.23" stroke="#263238" stroke-width="0.5" stroke-linecap="round" stroke-linejoin="round"/>
<path d="M305.897 265.562C305.03 264.577 304.234 263.531 303.515 262.434" stroke="#263238" stroke-width="0.5" stroke-linecap="round" stroke-linejoin="round"/>
<path d="M309.102 262.726C308.373 261.893 307.702 261.011 307.093 260.086" stroke="#263238" stroke-width="0.5" stroke-linecap="round" stroke-linejoin="round"/>
<path d="M304.653 264.04L308.049 261.438" stroke="#263238" stroke-width="0.5" stroke-linecap="round" stroke-linejoin="round"/>
<path d="M303.227 262.004C302.54 260.888 301.927 259.728 301.391 258.531" stroke="#263238" stroke-width="0.5" stroke-linecap="round" stroke-linejoin="round"/>
<path d="M306.853 259.726C306.269 258.784 305.751 257.803 305.303 256.789" stroke="#263238" stroke-width="0.5" stroke-linecap="round" stroke-linejoin="round"/>
<path d="M302.252 260.3L306.031 258.281" stroke="#263238" stroke-width="0.5" stroke-linecap="round" stroke-linejoin="round"/>
<path d="M301.18 258.061C300.674 256.851 300.252 255.608 299.917 254.34" stroke="#263238" stroke-width="0.5" stroke-linecap="round" stroke-linejoin="round"/>
<path d="M305.122 256.397C304.695 255.374 304.34 254.323 304.06 253.25" stroke="#263238" stroke-width="0.5" stroke-linecap="round" stroke-linejoin="round"/>
<path d="M300.492 256.223L304.538 254.836" stroke="#263238" stroke-width="0.5" stroke-linecap="round" stroke-linejoin="round"/>
<path d="M299.793 253.843C299.482 252.569 299.261 251.274 299.133 249.969" stroke="#263238" stroke-width="0.5" stroke-linecap="round" stroke-linejoin="round"/>
<path d="M303.945 252.819C303.688 251.741 303.503 250.648 303.39 249.547" stroke="#263238" stroke-width="0.5" stroke-linecap="round" stroke-linejoin="round"/>
<path d="M299.401 251.921L303.62 251.203" stroke="#263238" stroke-width="0.5" stroke-linecap="round" stroke-linejoin="round"/>
<path d="M326.762 230.613C329.128 230.64 331.462 231.17 333.608 232.168C335.754 233.166 337.663 234.609 339.208 236.402C340.753 238.194 341.9 240.295 342.571 242.564C343.242 244.834 343.423 247.22 343.101 249.564" stroke="#263238" stroke-width="2" stroke-miterlimit="10"/>
<path d="M311.024 241.338C312.24 238.159 314.4 235.427 317.212 233.51C320.025 231.593 323.357 230.583 326.761 230.614" stroke="#00C1B6" stroke-width="5" stroke-miterlimit="10"/>
<path d="M329.63 263.721C326.716 264.257 323.711 264.007 320.924 262.997C318.138 261.986 315.671 260.253 313.777 257.973C311.882 255.694 310.629 252.952 310.145 250.028C309.661 247.104 309.964 244.104 311.024 241.336" stroke="#263238" stroke-width="2" stroke-miterlimit="10"/>
<path d="M343.139 249.566C342.665 253.048 341.105 256.292 338.679 258.834C336.253 261.376 333.087 263.088 329.631 263.725" stroke="#00C1B6" stroke-width="5" stroke-miterlimit="10"/>
<path d="M166.255 172.812H183.255" stroke="#263238" stroke-width="2" stroke-linecap="round" stroke-linejoin="round"/>
<path d="M166.255 176.641H183.255" stroke="#263238" stroke-width="2" stroke-linecap="round" stroke-linejoin="round"/>
<path d="M166.255 180.457H183.255" stroke="#263238" stroke-width="2" stroke-linecap="round" stroke-linejoin="round"/>
<path d="M187.655 196.607L199.795 173.839L209.868 196.607L220.611 158.36L232.082 196.607L243.36 185.778L254.304 196.607L265.153 176.996L274.834 196.607L286.936 185.778L298.731 196.607L308.719 144.805L320.945 196.607L332.443 185.778L343.158 196.607" stroke="#263238" stroke-linecap="round" stroke-linejoin="round"/>
<path d="M343.158 192.425L332.443 167.132L320.945 167.514L308.719 126.168L298.731 138.05L286.936 167.132L274.834 168.222L265.153 152.064L254.304 177.97L243.36 183.069L232.082 170.709L220.611 148.362L209.868 161.774L199.795 157.498L187.655 192.425" stroke="#263238" stroke-linecap="round" stroke-linejoin="round"/>
<path d="M187.463 201.227V205.235" stroke="#263238" stroke-width="0.5" stroke-linecap="round" stroke-linejoin="round"/>
<path d="M209.677 201.227V205.235" stroke="#263238" stroke-width="0.5" stroke-linecap="round" stroke-linejoin="round"/>
<path d="M231.89 201.227V205.235" stroke="#263238" stroke-width="0.5" stroke-linecap="round" stroke-linejoin="round"/>
<path d="M254.104 201.227V205.235" stroke="#263238" stroke-width="0.5" stroke-linecap="round" stroke-linejoin="round"/>
<path d="M276.317 201.227V205.235" stroke="#263238" stroke-width="0.5" stroke-linecap="round" stroke-linejoin="round"/>
<path d="M298.531 201.227V205.235" stroke="#263238" stroke-width="0.5" stroke-linecap="round" stroke-linejoin="round"/>
<path d="M320.744 201.227V205.235" stroke="#263238" stroke-width="0.5" stroke-linecap="round" stroke-linejoin="round"/>
<path d="M342.967 201.227V205.235" stroke="#263238" stroke-width="0.5" stroke-linecap="round" stroke-linejoin="round"/>
<path d="M182.595 201.227H348.229" stroke="#263238" stroke-width="0.5" stroke-linecap="round" stroke-linejoin="round"/>
<path d="M292.858 127.794C292.372 127.784 291.901 127.626 291.507 127.341C291.113 127.056 290.816 126.658 290.653 126.2C290.491 125.742 290.473 125.245 290.6 124.776C290.727 124.307 290.994 123.888 291.366 123.575C300.444 115.982 307.23 106.013 310.964 94.7821C314.698 83.5516 315.232 71.5036 312.508 59.9865C312.362 59.3687 312.467 58.7183 312.801 58.1783C313.135 57.6383 313.669 57.2529 314.287 57.107C314.905 56.9612 315.555 57.0667 316.095 57.4004C316.635 57.7341 317.021 58.2686 317.167 58.8864C318.387 64.0722 319.003 69.3819 319.003 74.7094C319.013 84.7313 316.817 94.6325 312.571 103.711C308.326 112.789 302.134 120.822 294.437 127.239C293.995 127.609 293.434 127.807 292.858 127.794Z" fill="#00C1B6" stroke="#263238" stroke-miterlimit="10"/>
<path d="M250.507 127.19C279.492 127.19 302.989 103.693 302.989 74.7083C302.989 45.7234 279.492 22.2266 250.507 22.2266C221.522 22.2266 198.025 45.7234 198.025 74.7083C198.025 103.693 221.522 127.19 250.507 127.19Z" stroke="#263238" stroke-miterlimit="10"/>
<path d="M250.506 36.0898C242.868 36.088 235.4 38.3514 229.048 42.5938C222.696 46.8363 217.744 52.8672 214.819 59.9239C211.895 66.9806 211.129 74.7461 212.618 82.2382C214.107 89.7304 217.784 96.6127 223.185 102.015C228.586 107.417 235.467 111.096 242.959 112.587C250.451 114.078 258.216 113.313 265.274 110.391C272.331 107.468 278.363 102.518 282.607 96.1668C286.851 89.8155 289.117 82.3484 289.117 74.7097C289.117 64.4688 285.049 54.6471 277.809 47.4047C270.568 40.1624 260.747 36.0924 250.506 36.0898ZM250.506 103.055C244.893 103.048 239.407 101.376 234.744 98.2504C230.08 95.1253 226.448 90.6874 224.307 85.4981C222.166 80.3087 221.611 74.601 222.714 69.0966C223.816 63.5921 226.527 58.5383 230.501 54.5741C234.476 50.6099 239.537 47.9135 245.045 46.8257C250.552 45.7379 256.258 46.3077 261.442 48.463C266.626 50.6183 271.054 54.2623 274.166 58.9341C277.279 63.606 278.936 69.096 278.928 74.7097C278.928 78.4403 278.193 82.1344 276.764 85.5805C275.335 89.0267 273.241 92.1574 270.601 94.7936C267.962 97.4298 264.828 99.5197 261.38 100.944C257.932 102.368 254.237 103.098 250.506 103.093V103.055Z" fill="#00C1B6" stroke="#263238" stroke-miterlimit="10"/>
<path d="M255.874 74.7084C255.874 75.7722 255.558 76.812 254.967 77.6963C254.376 78.5807 253.536 79.2698 252.553 79.6764C251.57 80.0831 250.488 80.189 249.445 79.9807C248.402 79.7725 247.444 79.2595 246.692 78.5067C245.941 77.7538 245.43 76.7949 245.223 75.7514C245.017 74.7079 245.125 73.6266 245.533 72.6443C245.941 71.6621 246.632 70.8231 247.517 70.2335C248.403 69.6439 249.443 69.3301 250.507 69.332C251.931 69.3346 253.296 69.9021 254.302 70.9101C255.309 71.9181 255.874 73.2842 255.874 74.7084Z" fill="#263238" stroke="#263238" stroke-linecap="round" stroke-linejoin="round"/>
<path d="M292.858 55.531L330.712 45.1992" stroke="#263238" stroke-linecap="round" stroke-linejoin="round"/>
<path d="M221.338 101.523L201.631 119.346H178.509" stroke="#263238" stroke-linecap="round" stroke-linejoin="round"/>
<path d="M234.741 34.6564L223.634 4.82812H210.251" stroke="#263238" stroke-linecap="round" stroke-linejoin="round"/>
<path d="M184.632 1H201.631" stroke="#263238" stroke-width="2" stroke-linecap="round" stroke-linejoin="round"/>
<path d="M184.632 4.82812H201.631" stroke="#263238" stroke-width="2" stroke-linecap="round" stroke-linejoin="round"/>
<path d="M184.632 8.65234H201.631" stroke="#263238" stroke-width="2" stroke-linecap="round" stroke-linejoin="round"/>
<path d="M178.509 123.977H195.518" stroke="#263238" stroke-width="2" stroke-linecap="round" stroke-linejoin="round"/>
<path d="M178.509 127.793H195.518" stroke="#263238" stroke-width="2" stroke-linecap="round" stroke-linejoin="round"/>
<path d="M178.509 131.621H195.518" stroke="#263238" stroke-width="2" stroke-linecap="round" stroke-linejoin="round"/>
<path d="M335.304 35.668H352.304" stroke="#263238" stroke-width="2" stroke-linecap="round" stroke-linejoin="round"/>
<path d="M335.304 39.4883H352.304" stroke="#263238" stroke-width="2" stroke-linecap="round" stroke-linejoin="round"/>
<path d="M335.304 43.3125H352.304" stroke="#263238" stroke-width="2" stroke-linecap="round" stroke-linejoin="round"/>
<path d="M335.304 88.6016H352.304" stroke="#263238" stroke-width="2" stroke-linecap="round" stroke-linejoin="round"/>
<path d="M335.304 92.418H352.304" stroke="#263238" stroke-width="2" stroke-linecap="round" stroke-linejoin="round"/>
<path d="M335.304 96.2422H352.304" stroke="#263238" stroke-width="2" stroke-linecap="round" stroke-linejoin="round"/>
<path d="M250.507 23.9766V27.8414" stroke="#263238" stroke-linecap="round" stroke-linejoin="round"/>
<path d="M237.372 25.7109L238.377 29.4419" stroke="#263238" stroke-linecap="round" stroke-linejoin="round"/>
<path d="M225.137 30.7812L227.069 34.1199" stroke="#263238" stroke-linecap="round" stroke-linejoin="round"/>
<path d="M214.633 38.8359L217.359 41.5719" stroke="#263238" stroke-linecap="round" stroke-linejoin="round"/>
<path d="M206.568 49.3477L209.917 51.2705" stroke="#263238" stroke-linecap="round" stroke-linejoin="round"/>
<path d="M201.498 61.5859L205.229 62.5808" stroke="#263238" stroke-linecap="round" stroke-linejoin="round"/>
<path d="M199.776 74.7109H203.632" stroke="#263238" stroke-linecap="round" stroke-linejoin="round"/>
<path d="M201.498 87.8348L205.229 86.8398" stroke="#263238" stroke-linecap="round" stroke-linejoin="round"/>
<path d="M206.568 100.071L209.917 98.1484" stroke="#263238" stroke-linecap="round" stroke-linejoin="round"/>
<path d="M214.633 110.584L217.359 107.848" stroke="#263238" stroke-linecap="round" stroke-linejoin="round"/>
<path d="M225.137 118.639L227.069 115.301" stroke="#263238" stroke-linecap="round" stroke-linejoin="round"/>
<path d="M237.372 123.711L238.377 119.98" stroke="#263238" stroke-linecap="round" stroke-linejoin="round"/>
<path d="M250.507 125.443V121.578" stroke="#263238" stroke-linecap="round" stroke-linejoin="round"/>
<path d="M263.632 123.711L262.637 119.98" stroke="#263238" stroke-linecap="round" stroke-linejoin="round"/>
<path d="M275.867 118.639L273.935 115.301" stroke="#263238" stroke-linecap="round" stroke-linejoin="round"/>
<path d="M286.371 110.584L283.645 107.848" stroke="#263238" stroke-linecap="round" stroke-linejoin="round"/>
<path d="M291.088 98.1484L316.783 112.976H334.338" stroke="#263238" stroke-linecap="round" stroke-linejoin="round"/>
<path d="M299.506 87.8348L295.775 86.8398" stroke="#263238" stroke-linecap="round" stroke-linejoin="round"/>
<path d="M301.228 74.7109H297.373" stroke="#263238" stroke-linecap="round" stroke-linejoin="round"/>
<path d="M299.506 61.5859L295.775 62.5808" stroke="#263238" stroke-linecap="round" stroke-linejoin="round"/>
<path d="M294.436 49.3477L291.088 51.2705" stroke="#263238" stroke-linecap="round" stroke-linejoin="round"/>
<path d="M286.371 38.8359L283.645 41.5719" stroke="#263238" stroke-linecap="round" stroke-linejoin="round"/>
<path d="M275.867 30.7812L273.935 34.1199" stroke="#263238" stroke-linecap="round" stroke-linejoin="round"/>
<path d="M263.632 25.7109L262.637 29.4419" stroke="#263238" stroke-linecap="round" stroke-linejoin="round"/>
<path d="M159.654 62.9697H178.864V51.1647H167.719L166.58 48.2852H159.654V62.9697Z" fill="#00C1B6" stroke="#263238" stroke-miterlimit="10"/>
<path d="M159.654 82.0574H178.864V70.2524H167.719L166.58 67.3633H159.654V82.0574Z" fill="#00C1B6" stroke="#263238" stroke-miterlimit="10"/>
<path d="M159.654 101.134H178.864V89.3287H167.719L166.58 86.4492H159.654V101.134Z" fill="#00C1B6" stroke="#263238" stroke-miterlimit="10"/>
<path d="M205.87 139.828C205.87 140.271 205.739 140.704 205.493 141.072C205.247 141.44 204.897 141.727 204.488 141.897C204.079 142.066 203.629 142.11 203.195 142.024C202.761 141.938 202.362 141.724 202.049 141.411C201.736 141.098 201.522 140.699 201.436 140.265C201.35 139.831 201.394 139.381 201.563 138.972C201.733 138.563 202.02 138.213 202.388 137.967C202.756 137.721 203.189 137.59 203.632 137.59C204.225 137.592 204.792 137.829 205.212 138.248C205.631 138.668 205.868 139.235 205.87 139.828Z" fill="#00C1B6"/>
<path d="M214.412 142.067C215.649 142.067 216.651 141.065 216.651 139.828C216.651 138.592 215.649 137.59 214.412 137.59C213.176 137.59 212.174 138.592 212.174 139.828C212.174 141.065 213.176 142.067 214.412 142.067Z" fill="#00C1B6"/>
<path d="M225.184 142.067C226.421 142.067 227.423 141.065 227.423 139.828C227.423 138.592 226.421 137.59 225.184 137.59C223.948 137.59 222.946 138.592 222.946 139.828C222.946 141.065 223.948 142.067 225.184 142.067Z" fill="#00C1B6"/>
<path d="M235.955 142.067C237.192 142.067 238.194 141.065 238.194 139.828C238.194 138.592 237.192 137.59 235.955 137.59C234.719 137.59 233.717 138.592 233.717 139.828C233.717 141.065 234.719 142.067 235.955 142.067Z" fill="#00C1B6"/>
<path d="M162.476 219.898H8.42725L13.2201 213.594H156.277L162.476 219.898Z" fill="white" stroke="#263238" stroke-linecap="round" stroke-linejoin="round"/>
<path d="M100.036 214.456C98.3615 213.771 96.7403 212.962 95.1858 212.036C95.1858 212.036 104.15 167.513 104.484 152.886C104.819 138.259 106.809 108.02 106.809 108.02H66.6777C66.6777 108.02 68.6676 138.269 69.0024 152.886C69.3372 167.504 76.4068 212.036 76.4068 212.036C74.8536 212.964 73.2322 213.773 71.5566 214.456C69.4042 215.269 66.716 216.369 68.0553 216.886C69.8819 217.473 71.8144 217.656 73.7187 217.422C76.5307 216.674 79.2418 215.588 81.7928 214.188C82.8642 213.385 84.3087 126.626 84.3087 126.626H87.1787C87.1787 126.626 88.6902 213.385 89.7616 214.188C92.3152 215.59 95.0297 216.676 97.8453 217.422C99.7465 217.656 101.676 217.473 103.499 216.886C104.819 216.341 102.16 215.269 100.036 214.456Z" fill="#263238" stroke="#263238" stroke-linecap="round" stroke-linejoin="round"/>
<path d="M80.9703 51.8438L68.333 62.8069V109.673H100.907V62.4721L90.5177 52.0925L80.9703 51.8438Z" fill="white" stroke="#263238" stroke-linecap="round" stroke-linejoin="round"/>
<path d="M88.7282 63.399L85.5235 61.9258L83.0936 63.0738L85.1121 69.6268L81.6777 104.506L84.9303 108.017L88.7282 104.363L86.4036 69.6268L88.7282 63.399Z" fill="#00C1B6"/>
<path d="M63.7982 60.4336L43.479 86.1387L57.226 87.7172L63.98 81.6234L63.7982 60.4336Z" fill="white" stroke="#263238" stroke-linecap="round" stroke-linejoin="round"/>
<path d="M78.8842 51.5547L63.7979 60.4324V168.237H79.9461V52.0904L78.8842 51.5547Z" fill="white" stroke="#263238" stroke-linecap="round" stroke-linejoin="round"/>
<path d="M106.675 60.4336L127.272 83.4888L113.525 85.0673L106.561 81.6233L106.675 60.4336Z" fill="white" stroke="#263238" stroke-linecap="round" stroke-linejoin="round"/>
<path d="M91.579 51.5547L106.675 60.4324V168.237H90.5171V52.0904L91.579 51.5547Z" fill="white" stroke="#263238" stroke-linecap="round" stroke-linejoin="round"/>
<path d="M85.6093 61.9278L78.3579 65.2282V55.7383H92.5928V65.2282L85.6093 61.9278Z" fill="white" stroke="#263238" stroke-linecap="round" stroke-linejoin="round"/>
<path d="M92.5929 55.7383L85.5233 61.9278L78.5972 55.7383V39.2266H92.5929V55.7383Z" fill="white" stroke="#263238" stroke-linecap="round" stroke-linejoin="round"/>
<g style="mix-blend-mode:multiply">
<path d="M78.377 49.8748L83.3994 55.6913H87.9626L92.5927 50.5732L92.1527 45.723L78.597 45.082L78.377 49.8748Z" fill="#E1BEE7"/>
</g>
<path d="M77.0764 34.843C77.0764 34.843 74.4839 34.1638 74.7422 35.9814C75.0005 37.799 75.785 41.176 77.086 41.9605L78.3775 42.7353L77.0764 34.843Z" fill="white" stroke="#263238" stroke-linecap="round" stroke-linejoin="round"/>
<path d="M94.4675 34.843C94.4675 34.843 97.06 34.1638 96.8018 35.9814C96.5435 37.799 95.759 41.176 94.4675 41.9605L93.1665 42.7353L94.4675 34.843Z" fill="white" stroke="#263238" stroke-linecap="round" stroke-linejoin="round"/>
<path d="M95.6836 31.8302C95.691 30.4003 95.3878 28.9859 94.7948 27.6848C94.2018 26.3836 93.3333 25.2268 92.2493 24.2943C91.1653 23.3619 89.8916 22.676 88.5165 22.2842C87.1413 21.8923 85.6975 21.8039 84.2848 22.0249C82.8721 22.246 81.5242 22.7713 80.3345 23.5645C79.1448 24.3577 78.1416 25.3999 77.3943 26.6189C76.6469 27.8379 76.1733 29.2048 76.0062 30.6249C75.839 32.045 75.9824 33.4844 76.4262 34.8436L78.9327 46.6582L83.5246 53.0965H87.9538L92.4023 47.4905L95.1191 35.1211C95.4929 34.0642 95.6838 32.9513 95.6836 31.8302Z" fill="white" stroke="#263238" stroke-linecap="round" stroke-linejoin="round"/>
<path d="M78.3778 33.792C78.3778 33.792 79.9658 32.07 81.3913 32.644C82.8167 33.218 82.2618 34.94 86.4137 35.3705C88.7476 35.654 91.1156 35.4055 93.3398 34.6434L93.5598 31.0464L78.3491 28.9609L78.3778 33.792Z" fill="#E1BEE7"/>
<path d="M93.5595 31.0445C93.0082 32.2818 92.6594 33.5996 92.5264 34.9476C92.7464 36.5556 93.1841 38.1261 93.8274 39.6161C93.8274 39.6161 96.9365 33.13 96.6974 30.7862C96.4582 28.4424 93.3395 30.2696 93.5595 31.0445Z" fill="#263238" stroke="#263238" stroke-linecap="round" stroke-linejoin="round"/>
<path d="M77.2007 39.1014C77.2007 39.1014 77.2007 38.6996 77.2677 38.0873C77.4112 36.4132 77.8034 33.1797 78.7601 32.6057C80.0611 31.8309 79.9272 27.7364 79.9272 27.7364C79.9272 27.7364 78.1096 29.7836 84.3469 31.8596C90.5842 33.9355 95.6449 33.1319 99.0219 28.7122C102.399 24.2925 99.2802 21.1834 98.754 22.7427C98.2278 24.302 97.1947 26.378 95.377 24.8186C93.5594 23.2593 90.7086 20.1406 85.514 20.1406C80.3194 20.1406 77.9852 24.8186 77.9852 24.8186C77.1511 25.2234 76.4431 25.8478 75.9374 26.6249C75.4317 27.402 75.1475 28.3022 75.1152 29.2288C75.1631 32.3475 77.2007 39.1014 77.2007 39.1014Z" fill="#263238" stroke="#263238" stroke-linecap="round" stroke-linejoin="round"/>
<path d="M95.4724 30.875C91.7988 31.0185 88.6706 28.5407 85.4754 26.3596C82.2802 24.1784 80.1182 26.3596 80.1182 26.3596C80.3661 25.1727 80.998 24.1006 81.9161 23.3087C82.8343 22.5168 83.9876 22.0492 85.198 21.9781C89.5412 21.7007 90.9379 27.6606 94.994 28.1868" stroke="white" stroke-width="0.5" stroke-linecap="round" stroke-linejoin="round"/>
<path d="M85.1119 38.8828H76.416L77.3727 41.7528C77.4577 42.0273 77.6275 42.2679 77.8579 42.4398C78.0882 42.6117 78.3672 42.7061 78.6546 42.7094H83.1412C83.441 42.7076 83.7317 42.606 83.9673 42.4207C84.2029 42.2353 84.37 41.9767 84.4423 41.6858L85.1119 38.8828Z" fill="white" stroke="#263238" stroke-linecap="round" stroke-linejoin="round"/>
<path d="M94.7459 38.8828H86.0596L87.0162 41.7528C87.0981 42.0273 87.2658 42.2684 87.4948 42.4406C87.7238 42.6128 88.002 42.707 88.2886 42.7094H92.7752C93.0767 42.7097 93.3695 42.6091 93.6071 42.4236C93.8446 42.2381 94.0132 41.9783 94.0858 41.6858L94.7459 38.8828Z" fill="white" stroke="#263238" stroke-linecap="round" stroke-linejoin="round"/>
<path d="M76.4158 38.8825L75.9854 34.6445" stroke="#263238" stroke-linecap="round" stroke-linejoin="round"/>
<path d="M94.7456 38.8812L95.7405 34.8633" stroke="#263238" stroke-linecap="round" stroke-linejoin="round"/>
<path d="M85.1118 38.8828H86.0589" stroke="#263238" stroke-linecap="round" stroke-linejoin="round"/>
<path d="M84.8726 40.2422H86.4128" stroke="#263238" stroke-linecap="round" stroke-linejoin="round"/>
<path d="M87.3989 45.7227C87.3989 45.7227 86.7389 46.6793 85.9735 46.6793C85.2082 46.6793 84.5386 45.7227 84.5386 45.7227" stroke="#263238" stroke-linecap="round" stroke-linejoin="round"/>
<path d="M78.6356 51.5664L80.1184 65.3804L79.9653 96.4427L71.4511 67.1885L76.33 64.9786L71.0972 62.6635L75.8613 52.9153L78.6356 51.5664Z" fill="white" stroke="#263238" stroke-linecap="round" stroke-linejoin="round"/>
<path d="M92.6893 51.5664L90.5464 64.4142L90.6229 96.8924L99.8833 67.1885L95.0044 64.9786L100.228 62.6635L95.4636 52.9153L92.6893 51.5664Z" fill="white" stroke="#263238" stroke-linecap="round" stroke-linejoin="round"/>
<path d="M65.0039 87.3746L70.9447 83.8828V87.1641L65.0039 87.3746Z" fill="white" stroke="#263238" stroke-linecap="round" stroke-linejoin="round"/>
<path d="M94.1148 80.6189C94.1148 80.6189 91.8571 77.1367 91.044 77.1367C90.2308 77.1367 88.3749 80.2076 88.7863 81.2407C89.1976 82.2739 91.4553 79.8058 91.4553 79.8058L93.0912 84.3116L94.1148 80.6189Z" fill="white" stroke="#263238" stroke-linecap="round" stroke-linejoin="round"/>
<path d="M93.3401 81.625L90.2692 81.8355C89.4068 82.4364 88.4299 82.8532 87.3993 83.06C85.9643 83.2704 85.1416 83.6818 86.3757 84.7054C87.6098 85.729 90.2692 84.0932 90.2692 84.0932L93.3401 85.3177C93.5895 85.0792 93.7881 84.7926 93.9237 84.4753C94.0594 84.158 94.1293 83.8164 94.1293 83.4713C94.1293 83.1262 94.0594 82.7847 93.9237 82.4674C93.7881 82.15 93.5895 81.8635 93.3401 81.625Z" fill="white" stroke="#263238" stroke-linecap="round" stroke-linejoin="round"/>
<path d="M94.5254 87.7737C95.2361 88.4829 96.1675 88.9284 97.1657 89.0365C98.792 89.1895 102.179 86.6831 102.179 86.6831L101.585 84.0332L96.8692 82.5312L94.5254 87.7737Z" fill="white" stroke="#263238" stroke-linecap="round" stroke-linejoin="round"/>
<path d="M94.1148 79.375C94.1148 79.375 91.0439 83.4695 91.0439 84.2922C91.0439 85.1149 93.5025 87.7744 94.5261 87.7744C95.1958 87.7744 96.9465 86.5499 98.0657 85.6984C98.2021 85.5974 98.3173 85.4704 98.4046 85.3249C98.4919 85.1793 98.5496 85.0179 98.5745 84.8499C98.5994 84.682 98.5909 84.5108 98.5496 84.3462C98.5083 84.1815 98.4349 84.0266 98.3336 83.8904C97.1665 82.2832 94.861 79.375 94.1148 79.375Z" fill="white" stroke="#263238" stroke-linecap="round" stroke-linejoin="round"/>
<path d="M92.1528 85.8022L95.8359 81.0859" stroke="#263238" stroke-linecap="round" stroke-linejoin="round"/>
<path d="M97.606 83.4414L93.3394 87.1245" stroke="#263238" stroke-linecap="round" stroke-linejoin="round"/>
<path d="M99.6338 82.9263V95.6305L124.162 92.7606C125.308 92.6011 126.355 92.0252 127.103 91.143C127.851 90.2607 128.248 89.1338 128.218 87.9774V86.1502C128.206 85.5183 128.068 84.8952 127.81 84.318C127.552 83.7408 127.182 83.2213 126.719 82.7903C126.257 82.3593 125.713 82.0256 125.119 81.809C124.525 81.5924 123.894 81.4974 123.263 81.5295L99.6338 82.9263Z" fill="white" stroke="#263238" stroke-linecap="round" stroke-linejoin="round"/>
<path d="M85.4753 100.981H72.6084C72.163 100.981 71.7349 100.809 71.4138 100.5C71.0927 100.192 70.9037 99.7706 70.8864 99.3256L70.1115 78.2794C70.1051 78.0488 70.1449 77.8193 70.2284 77.6043C70.312 77.3893 70.4377 77.1931 70.5981 77.0274C70.7585 76.8616 70.9504 76.7296 71.1625 76.639C71.3747 76.5484 71.6028 76.5012 71.8335 76.5H86.2406C86.4716 76.4999 86.7003 76.5462 86.9131 76.6363C87.1258 76.7264 87.3183 76.8584 87.4789 77.0245C87.6396 77.1905 87.7652 77.3872 87.8483 77.6028C87.9314 77.8183 87.9703 78.0485 87.9626 78.2794L87.1877 99.3256C87.1728 99.7698 86.9858 100.191 86.6663 100.5C86.3467 100.808 85.9196 100.981 85.4753 100.981Z" fill="#263238" stroke="#263238" stroke-linecap="round" stroke-linejoin="round"/>
<path d="M65.0037 87.3663L69.9209 85.7305L77.7175 85.9314C77.7175 85.9314 78.5307 87.3663 77.7175 87.5768C76.9044 87.7873 73.4126 87.9882 73.4126 87.9882L78.1289 89.0118C78.1289 89.0118 78.1289 90.4467 77.3062 90.4467C76.4835 90.4467 72.7908 92.7044 71.7672 93.5176C70.7436 94.3307 64.3914 93.1158 64.3914 93.1158L61.5215 92.9053V87.7777L65.0037 87.3663Z" fill="white" stroke="#263238" stroke-linecap="round" stroke-linejoin="round"/>
<path d="M63.1573 86.7531V99.4669L44.3018 97.0084C43.156 96.847 42.1093 96.271 41.3599 95.3894C40.6105 94.5078 40.2106 93.3819 40.236 92.2251V90.4075C40.248 89.7764 40.3866 89.1542 40.6436 88.5777C40.9005 88.0012 41.2705 87.4821 41.7318 87.0512C42.193 86.6203 42.736 86.2864 43.3286 86.0692C43.9213 85.8521 44.5515 85.756 45.1819 85.7869L63.1573 86.7531Z" fill="white" stroke="#263238" stroke-linecap="round" stroke-linejoin="round"/>
<path d="M106.675 119.871H96.334V122.913H106.675V119.871Z" fill="white" stroke="#263238" stroke-linecap="round" stroke-linejoin="round"/>
<path d="M74.1392 119.871H63.7979V122.913H74.1392V119.871Z" fill="white" stroke="#263238" stroke-linecap="round" stroke-linejoin="round"/>
<path d="M137.441 216.635V149.105C137.442 147.235 137.841 145.385 138.613 143.681C139.385 141.977 140.512 140.457 141.918 139.223L154.814 127.944C156.196 126.734 157.303 125.243 158.062 123.57C158.821 121.897 159.214 120.081 159.214 118.244V113.202C159.214 112.273 159.031 111.353 158.675 110.495C158.319 109.636 157.798 108.857 157.14 108.2C156.483 107.543 155.702 107.023 154.843 106.668C153.985 106.313 153.064 106.132 152.135 106.133H58.5079C56.6329 106.133 54.8347 106.878 53.5089 108.203C52.1831 109.529 51.4383 111.327 51.4383 113.202V120.081C51.4357 123.359 50.1836 126.513 47.9369 128.901L36.4572 141.079C34.1721 143.516 32.8998 146.731 32.8984 150.072V216.635" stroke="#263238" stroke-width="5" stroke-linecap="round" stroke-linejoin="round"/>
<path d="M31.9702 176.641V216.638" stroke="white" stroke-linecap="round" stroke-linejoin="round"/>
<path d="M50.4812 116.973V120.082C50.4786 123.36 49.2265 126.514 46.9799 128.902L35.5001 141.08C33.215 143.517 31.9427 146.732 31.9414 150.073V170.708" stroke="white" stroke-linecap="round" stroke-linejoin="round"/>
<path d="M61.5207 106.133H57.5506C55.6756 106.133 53.8774 106.878 52.5516 108.203C51.2258 109.529 50.481 111.327 50.481 113.202" stroke="white" stroke-linecap="round" stroke-linejoin="round"/>
<path d="M136.484 191.457V149.106C136.484 147.235 136.884 145.386 137.656 143.682C138.428 141.978 139.555 140.458 140.961 139.224L153.857 127.945C155.239 126.735 156.346 125.243 157.105 123.57C157.864 121.898 158.257 120.082 158.257 118.245V113.203" stroke="white" stroke-linecap="round" stroke-linejoin="round"/>
<path d="M136.484 216.638V196.605" stroke="white" stroke-linecap="round" stroke-linejoin="round"/>
<path d="M45.2199 203.57H18.7686V222.627H45.2199V203.57Z" fill="#00C1B6" stroke="#263238" stroke-linecap="round" stroke-linejoin="round"/>
<path d="M45.2199 223.16H18.7686V236.706H45.2199V223.16Z" fill="#00C1B6" stroke="#263238" stroke-linecap="round" stroke-linejoin="round"/>
<path d="M149.274 223.16H122.823V236.706H149.274V223.16Z" fill="#00C1B6" stroke="#263238" stroke-linecap="round" stroke-linejoin="round"/>
<path d="M39.9394 247.142H24.0686L18.7783 236.715H45.2296L39.9394 247.142Z" fill="#00C1B6" stroke="#263238" stroke-linecap="round" stroke-linejoin="round"/>
<path d="M22.2603 237.086L25.7329 245.476" stroke="#263238" stroke-linecap="round" stroke-linejoin="round"/>
<path d="M27.1201 240.961L27.4645 241.927" stroke="#263238" stroke-linecap="round" stroke-linejoin="round"/>
<path d="M25.7329 237.086L26.6513 239.659" stroke="#263238" stroke-linecap="round" stroke-linejoin="round"/>
<path d="M143.993 247.142H128.113L122.823 236.715H149.284L143.993 247.142Z" fill="#00C1B6" stroke="#263238" stroke-linecap="round" stroke-linejoin="round"/>
<path d="M125.606 237.086L129.079 244.806" stroke="#263238" stroke-linecap="round" stroke-linejoin="round"/>
<path d="M129.08 237.086L130.649 240.425" stroke="#263238" stroke-linecap="round" stroke-linejoin="round"/>
<path d="M143.803 243.117L142.626 245.48" stroke="#263238" stroke-linecap="round" stroke-linejoin="round"/>
<path d="M146.797 237.086L144.396 241.927" stroke="#263238" stroke-linecap="round" stroke-linejoin="round"/>
<path d="M149.274 203.57H122.823V222.627H149.274V203.57Z" fill="#00C1B6" stroke="#263238" stroke-linecap="round" stroke-linejoin="round"/>
<path d="M47.6303 222.617H120.431V233.236C120.431 235.773 119.423 238.206 117.629 240.001C115.835 241.795 113.402 242.802 110.865 242.802H57.1011C54.564 242.802 52.1307 241.795 50.3366 240.001C48.5426 238.206 47.5347 235.773 47.5347 233.236V222.617H47.6303Z" fill="#00C1B6" stroke="#263238" stroke-linecap="round" stroke-linejoin="round"/>
<path d="M162.476 219.898H8.42725V231.876H162.476V219.898Z" fill="#00C1B6" stroke="#263238" stroke-linecap="round" stroke-linejoin="round"/>
<path d="M8.42725 227.109H55.6091L68.983 223.426H134.121L137.202 220.336" stroke="#263238" stroke-linecap="round" stroke-linejoin="round"/>
</svg>
