<svg width="24" height="24" viewBox="0 0 24 24" fill="none" xmlns="http://www.w3.org/2000/svg">
<path d="M10 11.6239L5.07498 17.4181C4.41411 18.1956 3.23201 18.243 2.51138 17.5207C1.79074 16.7985 1.83795 15.6138 2.61376 14.9515L8.3953 10.0156" stroke="#23262F" stroke-width="1.5" stroke-linejoin="round"/>
<path d="M18 10.0652L13.0476 15.0285M9.95238 2L5 6.96326M9.33337 2.62037L5.61908 6.34282C5.61908 6.34282 7.47622 8.82445 9.33337 10.6856C11.1905 12.5469 13.6667 14.4081 13.6667 14.4081L17.381 10.6856C17.381 10.6856 15.5238 8.20404 13.6667 6.34282C11.8096 4.4816 9.33337 2.62037 9.33337 2.62037Z" stroke="#23262F" stroke-width="1.5" stroke-linecap="round" stroke-linejoin="round"/>
<path d="M20 11.6556L22 10.0156M20 14.9355L22 16.0288" stroke="#23262F" stroke-width="1.5" stroke-linecap="round" stroke-linejoin="round"/>
<path d="M11.002 21.9987H20.9998M12.2267 21.9987C12.7782 21.0113 13.19 19.1216 15.142 19.0157C15.7218 18.9843 16.3117 18.9843 16.8914 19.0157C18.8434 19.1216 19.2572 21.0113 19.8087 21.9987" stroke="#23262F" stroke-width="1.5" stroke-linecap="round" stroke-linejoin="round"/>
</svg>
