<svg width="24" height="24" viewBox="0 0 24 24" fill="none" xmlns="http://www.w3.org/2000/svg">
<path d="M10 11.6278L5.07498 17.422C4.41411 18.1995 3.23201 18.2469 2.51138 17.5246C1.79074 16.8024 1.83795 15.6177 2.61376 14.9554L8.3953 10.0195" stroke="#23262F" stroke-width="1.5" stroke-linejoin="round"/>
<path d="M18 10.0672L13.0476 15.0305M9.95238 2.00195L5 6.96521M9.33337 2.62232L5.61908 6.34477C5.61908 6.34477 7.47622 8.8264 9.33337 10.6876C11.1905 12.5489 13.6667 14.4101 13.6667 14.4101L17.381 10.6876C17.381 10.6876 15.5238 8.20599 13.6667 6.34477C11.8096 4.48355 9.33337 2.62232 9.33337 2.62232Z" stroke="#23262F" stroke-width="1.5" stroke-linecap="round" stroke-linejoin="round"/>
<path d="M20 11.6595L22 10.0195M20 14.9394L22 16.0327" stroke="#23262F" stroke-width="1.5" stroke-linecap="round" stroke-linejoin="round"/>
<path d="M11.002 21.9987H20.9998M12.2267 21.9987C12.7782 21.0113 13.19 19.1216 15.142 19.0157C15.7218 18.9843 16.3117 18.9843 16.8914 19.0157C18.8434 19.1216 19.2572 21.0113 19.8087 21.9987" stroke="#23262F" stroke-width="1.5" stroke-linecap="round" stroke-linejoin="round"/>
</svg>
