<svg width="22" height="24" viewBox="0 0 22 24" fill="none" xmlns="http://www.w3.org/2000/svg">
<path d="M10.4922 13V8" stroke="#23262F" stroke-width="1.5" stroke-miterlimit="10" stroke-linecap="round" stroke-linejoin="round"/>
<path d="M20.4922 9C20.4922 4.58173 16.2389 1 10.9922 1C5.74548 1 1.49219 4.58173 1.49219 9C3.24109 7.22222 6.0766 7.22222 7.8255 9C9.57441 7.22222 12.4099 7.22222 14.1588 9C15.9078 7.22222 18.7433 7.22222 20.4922 9Z" stroke="#23262F" stroke-width="1.5" stroke-miterlimit="10" stroke-linecap="round" stroke-linejoin="round"/>
<path d="M10.9922 23C8.25574 21.8944 6.49219 19.4274 6.49219 16.7051V14.8182H6.99219C8.56599 14.8182 10.0479 14.1446 10.9922 13C11.9364 14.1446 13.4184 14.8182 14.9922 14.8182H15.4922V16.7051C15.4922 19.4274 13.7286 21.8944 10.9922 23Z" stroke="#23262F" stroke-width="1.5" stroke-miterlimit="10" stroke-linecap="round" stroke-linejoin="round"/>
<path d="M12.4922 17L10.4922 19L9.49219 18" stroke="#23262F" stroke-width="1.5" stroke-miterlimit="10" stroke-linecap="round" stroke-linejoin="round"/>
</svg>
