<svg width="24" height="24" viewBox="0 0 24 24" fill="none" xmlns="http://www.w3.org/2000/svg">
<mask id="mask0_1488_50677" style="mask-type:alpha" maskUnits="userSpaceOnUse" x="0" y="0" width="24" height="24">
<rect width="24" height="24" fill="#D9D9D9"/>
</mask>
<g mask="url(#mask0_1488_50677)">
<path d="M10.2216 8.15082L3.50028 13.5746V19.4285C3.50028 19.5801 3.56173 19.7254 3.67112 19.8326C3.78051 19.9398 3.92887 20 4.08356 20L8.16877 19.9896C8.32296 19.9889 8.47058 19.9283 8.57933 19.8212C8.68809 19.7142 8.74914 19.5692 8.74914 19.4181V15.9996C8.74914 15.848 8.8106 15.7026 8.91998 15.5954C9.02937 15.4883 9.17773 15.4281 9.33243 15.4281H11.6656C11.8203 15.4281 11.9686 15.4883 12.078 15.5954C12.1874 15.7026 12.2489 15.848 12.2489 15.9996V19.4156C12.2486 19.4908 12.2635 19.5654 12.2927 19.6349C12.322 19.7044 12.3649 19.7677 12.4191 19.8209C12.4733 19.8742 12.5376 19.9164 12.6085 19.9453C12.6794 19.9741 12.7554 19.9889 12.8322 19.9889L16.9159 20C17.0706 20 17.219 19.9398 17.3284 19.8326C17.4377 19.7254 17.4992 19.5801 17.4992 19.4285V13.5707L10.7794 8.15082C10.7004 8.08843 10.6019 8.05441 10.5005 8.05441C10.399 8.05441 10.3006 8.08843 10.2216 8.15082ZM20.8385 11.8373L17.7908 9.37596V4.42862C17.7908 4.31494 17.7448 4.20592 17.6627 4.12554C17.5807 4.04516 17.4694 4 17.3534 4H15.3119C15.1958 4 15.0846 4.04516 15.0025 4.12554C14.9205 4.20592 14.8744 4.31494 14.8744 4.42862V7.02212L11.6105 4.39112C11.2973 4.13858 10.9043 4.0005 10.4986 4.0005C10.093 4.0005 9.69997 4.13858 9.38675 4.39112L0.158763 11.8373C0.114465 11.8732 0.0778157 11.9172 0.0509086 11.967C0.0240015 12.0168 0.00736429 12.0712 0.00194751 12.1273C-0.00346927 12.1833 0.00244057 12.2399 0.0193394 12.2937C0.0362382 12.3475 0.0637947 12.3976 0.100435 12.4409L1.03005 13.5482C1.06659 13.5917 1.11153 13.6278 1.16231 13.6543C1.21309 13.6808 1.2687 13.6972 1.32596 13.7026C1.38322 13.708 1.441 13.7023 1.49601 13.6858C1.55102 13.6693 1.60216 13.6423 1.64651 13.6064L10.2216 6.68637C10.3006 6.62398 10.399 6.58996 10.5005 6.58996C10.6019 6.58996 10.7004 6.62398 10.7794 6.68637L19.3548 13.6064C19.3991 13.6423 19.4501 13.6693 19.5051 13.6859C19.56 13.7024 19.6177 13.7082 19.6749 13.7029C19.7321 13.6976 19.7877 13.6813 19.8385 13.655C19.8893 13.6286 19.9343 13.5927 19.9709 13.5493L20.9005 12.442C20.9371 12.3984 20.9645 12.3481 20.9812 12.294C20.9979 12.24 21.0036 12.1832 20.9978 12.127C20.9921 12.0708 20.975 12.0163 20.9477 11.9666C20.9203 11.9169 20.8832 11.8729 20.8385 11.8373Z" fill="#667085"/>
</g>
</svg>
