<svg width="21" height="24" viewBox="0 0 21 24" fill="none" xmlns="http://www.w3.org/2000/svg">
<path d="M10 13V8" stroke="#23262F" stroke-width="1.5" stroke-miterlimit="10" stroke-linecap="round" stroke-linejoin="round"/>
<path d="M20 9C20 4.58173 15.7467 1 10.5 1C5.25329 1 1 4.58173 1 9C2.7489 7.22222 5.58441 7.22222 7.33332 9C9.08222 7.22222 11.9177 7.22222 13.6666 9C15.4156 7.22222 18.2511 7.22222 20 9Z" stroke="#23262F" stroke-width="1.5" stroke-miterlimit="10" stroke-linecap="round" stroke-linejoin="round"/>
<path d="M10.5 23C7.76355 21.8944 6 19.4274 6 16.7051V14.8182H6.5C8.0738 14.8182 9.55575 14.1446 10.5 13C11.4443 14.1446 12.9262 14.8182 14.5 14.8182H15V16.7051C15 19.4274 13.2365 21.8944 10.5 23Z" stroke="#23262F" stroke-width="1.5" stroke-miterlimit="10" stroke-linecap="round" stroke-linejoin="round"/>
<path d="M12 17L10 19L9 18" stroke="#23262F" stroke-width="1.5" stroke-miterlimit="10" stroke-linecap="round" stroke-linejoin="round"/>
</svg>
