<svg width="16" height="17" viewBox="0 0 16 17" fill="none" xmlns="http://www.w3.org/2000/svg">
<path d="M13.998 7.16406C13.998 11.8307 7.99805 15.8307 7.99805 15.8307C7.99805 15.8307 1.99805 11.8307 1.99805 7.16406C1.99805 5.57276 2.63019 4.04664 3.75541 2.92142C4.88062 1.7962 6.40675 1.16406 7.99805 1.16406C9.58935 1.16406 11.1155 1.7962 12.2407 2.92142C13.3659 4.04664 13.998 5.57276 13.998 7.16406Z" fill="#00C1B6"/>
<path d="M7.99805 9.16406C9.10262 9.16406 9.99805 8.26863 9.99805 7.16406C9.99805 6.05949 9.10262 5.16406 7.99805 5.16406C6.89348 5.16406 5.99805 6.05949 5.99805 7.16406C5.99805 8.26863 6.89348 9.16406 7.99805 9.16406Z" fill="white"/>
</svg>
