<svg width="27" height="27" viewBox="0 0 27 27" fill="none" xmlns="http://www.w3.org/2000/svg">
<g clip-path="url(#clip0_1377_16853)">
<mask id="mask0_1377_16853" style="mask-type:luminance" maskUnits="userSpaceOnUse" x="2" y="2" width="23" height="23">
<path d="M25 2H2V25H25V2Z" fill="white"/>
</mask>
<g mask="url(#mask0_1377_16853)">
<mask id="mask1_1377_16853" style="mask-type:luminance" maskUnits="userSpaceOnUse" x="2" y="2" width="23" height="23">
<path d="M2 2.00001H25V25H2V2.00001Z" fill="white"/>
</mask>
<g mask="url(#mask1_1377_16853)">
<path d="M4.51562 10.7598C4.51562 12.6606 5.17198 14.4078 6.27009 15.7879C7.49493 17.3273 8.10937 19.2643 8.10937 21.2315V24.3262H17.0937V20.1775L19.3339 20.1874C20.0805 20.1907 20.6875 19.5864 20.6875 18.8398V15.7012L22.4844 14.8027L20.6875 10.7598" stroke="#23262F" stroke-width="1.5" stroke-miterlimit="10" stroke-linecap="round" stroke-linejoin="round"/>
<path d="M20.6875 10.7598C20.6875 6.29399 17.0673 2.67383 12.6016 2.67383C8.13583 2.67383 4.51562 6.29399 4.51562 10.7598" stroke="#23262F" stroke-width="1.5" stroke-miterlimit="10" stroke-linecap="round" stroke-linejoin="round"/>
<path d="M20.6875 17.498H18.8906" stroke="#23262F" stroke-width="1.5" stroke-miterlimit="10" stroke-linecap="round" stroke-linejoin="round"/>
<path d="M7.66016 11.3088C7.66016 8.27653 10.1183 5.81836 13.1506 5.81836C15.5764 5.81836 17.543 7.78486 17.543 10.2107C17.543 12.1514 15.9698 13.7246 14.0291 13.7246C12.4765 13.7246 11.218 12.466 11.218 10.9135C11.218 9.67144 12.2248 8.66461 13.4668 8.66461C14.4605 8.66461 15.266 9.47011 15.266 10.4637" stroke="#23262F" stroke-width="1.5" stroke-miterlimit="10" stroke-linecap="round" stroke-linejoin="round"/>
</g>
</g>
</g>
<defs>
<clipPath id="clip0_1377_16853">
<rect width="23" height="23" fill="white" transform="translate(2 2)"/>
</clipPath>
</defs>
</svg>
