<svg width="27" height="27" viewBox="0 0 27 27" fill="none" xmlns="http://www.w3.org/2000/svg">
<path d="M5.69089 13.2099C7.84926 13.4754 9.82252 11.8727 10.0983 9.6302C10.3741 7.38775 7.80621 5.22657 8.73903 2.25C4.12287 2.9188 2.53188 6.63877 2.2822 8.66894C2.00642 10.9114 3.53254 12.9445 5.69089 13.2099Z" stroke="#23262F" stroke-width="1.5" stroke-linejoin="round"/>
<path d="M7.875 22.5C5.70978 17.2397 5.36616 12.5934 5.77434 9" stroke="#23262F" stroke-width="1.5" stroke-linecap="round" stroke-linejoin="round"/>
<path d="M10.6963 19.8766C12.0182 22.5677 15.2107 23.3099 17.8271 21.5342C20.4435 19.7585 20.855 14.8385 24.75 13.1232C20.5936 8.51904 15.4092 10.1812 13.0406 11.7888C10.4241 13.5645 9.37458 17.1855 10.6963 19.8766Z" stroke="#23262F" stroke-width="1.5" stroke-linejoin="round"/>
<path d="M6.75 24.75C9.425 20.1424 12.6724 17.3587 15.75 15.75" stroke="#23262F" stroke-width="1.5" stroke-linecap="round" stroke-linejoin="round"/>
</svg>
