<svg width="27" height="27" viewBox="0 0 27 27" fill="none" xmlns="http://www.w3.org/2000/svg">
<path d="M16.5 7.5C16.5 9.433 14.933 11 13 11C11.067 11 9.5 9.433 9.5 7.5C9.5 5.567 11.067 4 13 4C14.933 4 16.5 5.567 16.5 7.5Z" stroke="#23262F" stroke-width="1.5"/>
<path d="M23 18.5C23 20.433 21.433 22 19.5 22C17.567 22 16 20.433 16 18.5C16 16.567 17.567 15 19.5 15C21.433 15 23 16.567 23 18.5Z" stroke="#23262F" stroke-width="1.5"/>
<path d="M10 18.5C10 20.433 8.433 22 6.5 22C4.567 22 3 20.433 3 18.5C3 16.567 4.567 15 6.5 15C8.433 15 10 16.567 10 18.5Z" stroke="#23262F" stroke-width="1.5"/>
</svg>
