<svg width="24" height="24" viewBox="0 0 24 24" fill="none" xmlns="http://www.w3.org/2000/svg">
<path d="M16.9986 12C16.9986 14.7614 14.76 17 11.9986 17C9.23712 17 6.99854 14.7614 6.99854 12C6.99854 9.23858 9.23712 7 11.9986 7" stroke="white" stroke-width="1.5" stroke-linejoin="round"/>
<path d="M13.9986 2.20004C13.3524 2.06886 12.6835 2 11.9986 2C6.47569 2 1.99854 6.47715 1.99854 12C1.99854 17.5228 6.47569 22 11.9986 22C17.5214 22 21.9986 17.5228 21.9986 12C21.9986 11.3151 21.9297 10.6462 21.7986 10" stroke="white" stroke-width="1.5" stroke-linejoin="round"/>
<path d="M16.0027 7.98818V5.00533L18.9715 2.0459C18.9772 2.04028 18.9868 2.04317 18.9884 2.05096L19.4869 4.47385C19.4877 4.47775 19.4907 4.48081 19.4946 4.48162L21.983 5.00169C21.9908 5.00332 21.9936 5.01298 21.988 5.01859L18.9876 7.98529C18.9857 7.98714 18.9832 7.98818 18.9806 7.98818H16.0027ZM16.0027 7.98818L11.9873 12.0021" stroke="white" stroke-width="1.5"/>
</svg>
