<svg width="12" height="11" viewBox="0 0 12 11" fill="none" xmlns="http://www.w3.org/2000/svg">
<g clip-path="url(#clip0_1851_6887)">
<path fill-rule="evenodd" clip-rule="evenodd" d="M10.7579 5.56951L10.7551 5.57354C10.6885 5.6692 10.4985 5.94218 10.3805 6.09531C10.1414 6.40542 9.79472 6.8198 9.36494 7.23537C8.51909 8.05336 7.28942 8.9362 5.88509 8.9362C4.48077 8.9362 3.25107 8.05336 2.40522 7.23537C1.97548 6.8198 1.62883 6.40542 1.38972 6.09531C1.27179 5.94236 1.08198 5.66966 1.01521 5.57368L1.01217 5.56933C0.939953 5.45639 0.939953 5.31184 1.01217 5.1989L1.01518 5.19459C1.08193 5.09866 1.27177 4.82586 1.38972 4.67292C1.62883 4.36281 1.97548 3.94842 2.40522 3.53284C3.25107 2.71487 4.48077 1.83203 5.88509 1.83203C7.28942 1.83203 8.51909 2.71487 9.36494 3.53284C9.79472 3.94842 10.1414 4.36281 10.3805 4.67292C10.4984 4.82591 10.6883 5.0988 10.7551 5.19464L10.758 5.1989C10.8302 5.31184 10.8301 5.45662 10.7579 5.56951ZM5.88509 7.10286C4.93585 7.10286 4.16634 6.33337 4.16634 5.38411C4.16634 4.43487 4.93585 3.66536 5.88509 3.66536C6.83434 3.66536 7.60384 4.43487 7.60384 5.38411C7.60384 6.33337 6.83434 7.10286 5.88509 7.10286Z" fill="#141B34"/>
</g>
<defs>
<clipPath id="clip0_1851_6887">
<rect width="11" height="11" fill="white" transform="translate(0.5)"/>
</clipPath>
</defs>
</svg>
